<?xml version="1.0" encoding="UTF-8" standalone="no"?>
<svg width="226px" height="182px" viewBox="0 0 226 182" version="1.1" xmlns="http://www.w3.org/2000/svg" xmlns:xlink="http://www.w3.org/1999/xlink" xmlns:sketch="http://www.bohemiancoding.com/sketch/ns">
    <!-- Generator: Sketch 3.4.2 (15857) - http://www.bohemiancoding.com/sketch -->
    <title>Imported Layers</title>
    <desc>Created with Sketch.</desc>
    <defs></defs>
    <g id="Page-1" stroke="none" stroke-width="1" fill="none" fill-rule="evenodd" sketch:type="MSPage">
        <g id="[desktop]-socialstars" sketch:type="MSArtboardGroup" transform="translate(-607.000000, -315.000000)">
            <g id="Imported-Layers" sketch:type="MSLayerGroup" transform="translate(607.000000, 315.000000)">
                <path d="M95.862,160.377 C92.138,160.377 91.134,159.205 91.134,157.029 C91.134,153.893 92.891,152.846 102.096,152.846 L102.975,152.846 L102.975,154.06 C102.975,158.452 100.883,160.377 95.862,160.377 L95.862,160.377 Z M95.025,164.56 C99.836,164.56 102.389,163.557 103.728,161.758 C104.355,163.725 105.485,164.185 107.87,164.185 C108.916,164.185 109.543,164.185 109.878,164.101 L109.878,159.875 C107.828,159.875 107.661,159.54 107.661,157.406 L107.661,149.541 C107.661,142.888 106.154,140.168 97.995,140.168 C93.602,140.168 89.753,141.8 88.163,142.888 L90.716,146.695 C92.18,145.817 94.607,144.729 97.493,144.729 C102.138,144.729 102.891,146.026 102.975,148.829 L101.803,148.829 C90.297,148.829 86.531,150.754 86.531,157.406 C86.531,161.382 88.122,164.56 95.025,164.56 L95.025,164.56 Z M77.075,138.16 L81.971,138.16 L81.971,132.805 L77.075,132.805 L77.075,138.16 Z M77.117,164.143 L81.929,164.143 L81.929,140.712 L77.117,140.712 L77.117,164.143 Z M63.268,164.56 C67.578,164.56 69.878,163.306 72.389,160.963 L69.126,157.867 C67.411,159.456 65.904,160.209 63.477,160.209 C57.997,160.209 56.574,157.239 56.574,152.512 C56.574,147.783 58.08,144.897 63.477,144.897 C66.364,144.897 67.829,146.067 68.875,147.156 L72.431,143.809 C70.506,141.633 67.662,140.168 63.477,140.168 C54.022,140.168 51.679,145.315 51.679,152.386 C51.679,159.499 54.063,164.56 63.268,164.56 L63.268,164.56 Z M36.407,160.209 C31.219,160.209 29.545,157.364 29.545,152.512 C29.545,147.658 31.219,144.854 36.407,144.854 C41.553,144.854 43.269,147.658 43.269,152.512 C43.269,157.364 41.553,160.209 36.407,160.209 L36.407,160.209 Z M36.407,164.603 C44.858,164.603 48.165,160.335 48.165,152.386 C48.165,144.436 44.858,140.168 36.407,140.168 C27.955,140.168 24.65,144.436 24.65,152.386 C24.65,160.335 27.955,164.603 36.407,164.603 L36.407,164.603 Z M11.345,164.56 C18.625,164.56 21.554,162.553 21.554,157.197 C21.554,151.717 17.621,151.005 11.805,150.043 C8.249,149.457 6.993,148.996 6.993,147.113 C6.993,145.566 7.956,144.687 11.805,144.687 C14.399,144.687 16.867,145.356 18.583,146.277 L20.884,142.261 C18.583,140.922 15.319,140.168 11.679,140.168 C4.734,140.168 2.182,142.679 2.182,147.113 C2.182,152.763 6.073,153.641 11.679,154.52 C15.529,155.147 16.826,155.523 16.826,157.448 C16.826,159.791 15.403,160.335 11.638,160.335 C9.085,160.335 5.989,159.624 3.395,157.951 L0.884,161.716 C4.065,163.85 7.788,164.56 11.345,164.56 L11.345,164.56 Z M120.297,164.185 C121.426,164.185 122.473,164.143 122.891,164.101 L122.891,159.833 L122.012,159.833 C119.836,159.833 119.502,159.164 119.502,157.113 L119.502,131.676 L114.69,131.676 L114.69,157.699 C114.69,162.553 116.322,164.185 120.297,164.185 L120.297,164.185 Z" id="Fill-1" fill="#777877" sketch:type="MSShapeGroup"></path>
                <path d="M221.355,171.242 C220.683,171.242 220.123,171.472 219.68,171.931 C219.236,172.392 219.015,172.992 219.015,173.733 C219.015,174.491 219.236,175.105 219.68,175.572 C220.123,176.042 220.683,176.274 221.355,176.274 C222.01,176.274 222.559,176.035 223.008,175.56 C223.453,175.084 223.678,174.479 223.678,173.742 C223.678,173.011 223.456,172.41 223.018,171.944 C222.579,171.476 222.025,171.242 221.355,171.242 L221.355,171.242 Z M210.421,171.242 C209.759,171.242 209.207,171.476 208.769,171.944 C208.33,172.41 208.108,173.011 208.108,173.742 C208.108,174.479 208.333,175.084 208.779,175.56 C209.228,176.035 209.776,176.274 210.432,176.274 C211.102,176.274 211.663,176.042 212.106,175.572 C212.55,175.105 212.772,174.491 212.772,173.733 C212.772,172.992 212.55,172.392 212.106,171.931 C211.663,171.472 211.102,171.242 210.421,171.242 L210.421,171.242 Z M212.677,169.489 L214.815,169.489 L214.815,178.027 L212.677,178.027 L212.677,177.118 C212.259,177.515 211.839,177.8 211.416,177.974 C210.996,178.147 210.537,178.235 210.047,178.235 C208.941,178.235 207.987,177.81 207.181,176.955 C206.374,176.103 205.972,175.043 205.972,173.773 C205.972,172.459 206.363,171.381 207.143,170.54 C207.923,169.702 208.866,169.28 209.982,169.28 C210.498,169.28 210.978,169.377 211.426,169.566 C211.877,169.758 212.292,170.046 212.677,170.426 L212.677,169.489 L212.677,169.489 Z M201.794,166.546 L203.934,166.546 L203.934,169.698 L205.201,169.698 L205.201,171.546 L203.934,171.546 L203.934,178.235 L201.794,178.235 L201.794,171.546 L200.701,171.546 L200.701,169.698 L201.794,169.698 L201.794,166.546 L201.794,166.546 Z M194.986,171.242 C194.324,171.242 193.772,171.476 193.334,171.944 C192.896,172.41 192.674,173.011 192.674,173.742 C192.674,174.479 192.898,175.084 193.345,175.56 C193.793,176.035 194.342,176.274 194.996,176.274 C195.667,176.274 196.228,176.042 196.672,175.572 C197.115,175.105 197.337,174.491 197.337,173.733 C197.337,172.992 197.115,172.392 196.672,171.931 C196.228,171.472 195.667,171.242 194.986,171.242 L194.986,171.242 Z M197.241,166.193 L199.379,166.193 L199.379,178.027 L197.241,178.027 L197.241,177.118 C196.824,177.515 196.401,177.8 195.981,177.974 C195.56,178.147 195.105,178.235 194.612,178.235 C193.504,178.235 192.553,177.81 191.746,176.955 C190.936,176.103 190.537,175.043 190.537,173.773 C190.537,172.459 190.929,171.381 191.707,170.54 C192.488,169.702 193.435,169.28 194.548,169.28 C195.064,169.28 195.543,169.377 195.991,169.566 C196.442,169.76 196.857,170.05 197.241,170.433 L197.241,166.193 L197.241,166.193 Z M177.121,169.698 L179.201,169.698 L180.933,174.556 L182.781,169.698 L184.07,169.698 L185.885,174.499 L187.603,169.698 L189.694,169.698 L186.603,178.235 L185.245,178.235 L183.407,173.368 L181.539,178.235 L180.193,178.235 L177.121,169.698 L177.121,169.698 Z M171.818,171.29 C171.151,171.29 170.597,171.521 170.153,171.98 C169.713,172.444 169.491,173.035 169.491,173.755 C169.491,174.495 169.71,175.095 170.146,175.553 C170.584,176.012 171.138,176.241 171.81,176.241 C172.478,176.241 173.038,176.01 173.483,175.545 C173.93,175.083 174.151,174.483 174.151,173.755 C174.151,173.023 173.933,172.432 173.497,171.973 C173.059,171.518 172.499,171.29 171.818,171.29 L171.818,171.29 Z M171.788,169.28 C172.592,169.28 173.35,169.481 174.061,169.883 C174.773,170.284 175.327,170.83 175.727,171.518 C176.126,172.209 176.324,172.951 176.324,173.75 C176.324,174.555 176.121,175.305 175.724,176.004 C175.321,176.703 174.773,177.249 174.084,177.644 C173.389,178.038 172.628,178.235 171.795,178.235 C170.565,178.235 169.519,177.801 168.653,176.934 C167.785,176.063 167.352,175.007 167.352,173.766 C167.352,172.435 167.842,171.326 168.823,170.44 C169.682,169.666 170.669,169.28 171.788,169.28 L171.788,169.28 Z M162.129,169.698 L163.978,169.698 L163.978,170.783 C164.176,170.359 164.439,170.038 164.767,169.818 C165.096,169.599 165.454,169.488 165.844,169.488 C166.117,169.488 166.408,169.56 166.71,169.708 L166.047,171.557 C165.797,171.432 165.591,171.371 165.432,171.371 C165.103,171.371 164.825,171.573 164.599,171.98 C164.372,172.388 164.259,173.186 164.259,174.376 L164.267,174.791 L164.267,178.235 L162.129,178.235 L162.129,169.698 L162.129,169.698 Z M160.941,168.426 L159.399,169.89 C158.353,168.785 157.175,168.234 155.866,168.234 C154.76,168.234 153.829,168.611 153.074,169.365 C152.314,170.118 151.937,171.045 151.937,172.148 C151.937,172.918 152.107,173.602 152.44,174.196 C152.775,174.793 153.25,175.263 153.86,175.603 C154.474,175.943 155.157,176.112 155.907,176.112 C156.544,176.112 157.129,175.995 157.654,175.756 C158.185,175.519 158.769,175.083 159.399,174.456 L160.893,176.016 C160.041,176.849 159.234,177.429 158.477,177.749 C157.717,178.074 156.851,178.235 155.876,178.235 C154.079,178.235 152.61,177.667 151.466,176.527 C150.321,175.392 149.749,173.932 149.749,172.154 C149.749,171.002 150.01,169.981 150.532,169.086 C151.054,168.191 151.798,167.474 152.771,166.929 C153.742,166.385 154.786,166.111 155.909,166.111 C156.858,166.111 157.775,166.312 158.66,166.715 C159.544,167.116 160.305,167.687 160.941,168.426 L160.941,168.426 Z M135.31,169.408 L137.506,169.408 L139.717,174.753 L142.168,169.408 L144.359,169.408 L139.019,181.065 L136.825,181.065 L138.563,177.315 L135.31,169.408 L135.31,169.408 Z M130.033,171.242 C129.36,171.242 128.801,171.472 128.357,171.931 C127.914,172.392 127.69,172.992 127.69,173.733 C127.69,174.491 127.914,175.105 128.357,175.572 C128.801,176.042 129.36,176.274 130.033,176.274 C130.688,176.274 131.236,176.035 131.683,175.56 C132.131,175.084 132.355,174.479 132.355,173.742 C132.355,173.011 132.134,172.41 131.695,171.944 C131.258,171.476 130.703,171.242 130.033,171.242 L130.033,171.242 Z M127.788,166.193 L127.788,170.433 C128.175,170.05 128.592,169.76 129.043,169.566 C129.491,169.377 129.974,169.28 130.486,169.28 C131.598,169.28 132.546,169.702 133.324,170.54 C134.106,171.381 134.492,172.459 134.492,173.773 C134.492,175.043 134.09,176.103 133.283,176.955 C132.48,177.81 131.525,178.235 130.422,178.235 C129.933,178.235 129.474,178.147 129.051,177.974 C128.628,177.8 128.205,177.515 127.788,177.118 L127.788,178.027 L125.648,178.027 L125.648,166.193 L127.788,166.193 L127.788,166.193 Z M219.11,169.489 L219.11,170.426 C219.497,170.046 219.914,169.758 220.365,169.566 C220.814,169.377 221.296,169.28 221.809,169.28 C222.92,169.28 223.866,169.702 224.647,170.54 C225.428,171.381 225.815,172.459 225.815,173.773 C225.815,175.043 225.412,176.103 224.605,176.955 C223.802,177.81 222.848,178.235 221.744,178.235 C221.255,178.235 220.796,178.147 220.373,177.974 C219.948,177.8 219.527,177.512 219.11,177.112 L219.11,181.146 L216.971,181.146 L216.971,169.489 L219.11,169.489 L219.11,169.489 Z" id="Fill-2" fill="#777877" sketch:type="MSShapeGroup"></path>
                <path d="M191.758,164.143 L196.652,164.143 L196.652,152.093 C196.652,148.034 198.242,145.398 203.85,145.356 L203.85,140.461 C199.875,140.545 197.029,141.8 196.066,143.391 L195.565,140.712 L191.758,141.006 L191.758,164.143 L191.758,164.143 Z M173.18,160.377 C169.457,160.377 168.453,159.205 168.453,157.029 C168.453,153.893 170.209,152.846 179.414,152.846 L180.293,152.846 L180.293,154.06 C180.293,158.452 178.201,160.377 173.18,160.377 L173.18,160.377 Z M172.344,164.56 C177.154,164.56 179.707,163.557 181.045,161.758 C181.674,163.725 182.803,164.185 185.188,164.185 C186.234,164.185 186.861,164.185 187.197,164.101 L187.197,159.875 C185.147,159.875 184.978,159.54 184.978,157.406 L184.978,149.541 C184.978,142.888 183.473,140.168 175.315,140.168 C170.92,140.168 167.072,141.8 165.48,142.888 L168.033,146.695 C169.498,145.817 171.926,144.729 174.81,144.729 C179.457,144.729 180.209,146.026 180.293,148.829 L179.121,148.829 C167.615,148.829 163.85,150.754 163.85,157.406 C163.85,161.382 165.44,164.56 172.344,164.56 L172.344,164.56 Z M149.916,151.207 L149.916,157.406 C149.916,162.093 151.297,164.185 157.113,164.185 C157.908,164.185 160.084,164.185 160.754,164.143 L160.754,159.833 L158.033,159.833 C155.022,159.833 154.77,158.661 154.77,156.695 L154.77,145.147 L160.754,145.147 L160.754,140.712 L154.77,140.712 L154.77,133.642 L149.916,133.642 L149.916,151.207 L149.916,151.207 Z M135.693,164.56 C142.973,164.56 145.902,162.553 145.902,157.197 C145.902,151.717 141.969,151.005 136.154,150.043 C132.598,149.457 131.342,148.996 131.342,147.113 C131.342,145.566 132.305,144.687 136.154,144.687 C138.748,144.687 141.217,145.356 142.932,146.277 L145.232,142.261 C142.932,140.922 139.668,140.168 136.027,140.168 C129.082,140.168 126.529,142.679 126.529,147.113 C126.529,152.763 130.422,153.641 136.027,154.52 C139.877,155.147 141.174,155.523 141.174,157.448 C141.174,159.791 139.752,160.335 135.986,160.335 C133.434,160.335 130.338,159.624 127.744,157.951 L125.232,161.716 C128.414,163.85 132.137,164.56 135.693,164.56 L135.693,164.56 Z M215.605,164.56 C222.885,164.56 225.815,162.553 225.815,157.197 C225.815,151.717 221.881,151.005 216.066,150.043 C212.51,149.457 211.254,148.996 211.254,147.113 C211.254,145.566 212.217,144.687 216.066,144.687 C218.66,144.687 221.129,145.356 222.844,146.277 L225.145,142.261 C222.844,140.922 219.58,140.168 215.94,140.168 C208.994,140.168 206.441,142.679 206.441,147.113 C206.441,152.763 210.334,153.641 215.94,154.52 C219.789,155.147 221.086,155.523 221.086,157.448 C221.086,159.791 219.664,160.335 215.898,160.335 C213.346,160.335 210.25,159.624 207.656,157.951 L205.145,161.716 C208.326,163.85 212.049,164.56 215.605,164.56 L215.605,164.56 Z" id="Fill-3" fill="#0AB5D3" sketch:type="MSShapeGroup"></path>
                <path d="M88.904,96.573 C86.832,98.85 84.686,99.203 83.749,97.607 C82.618,95.682 83.494,91.598 85.703,88.486 C87.91,85.374 90.617,84.415 91.748,86.342 C92.748,88.046 92.16,91.492 90.478,94.398 C90.652,95.627 90.826,96.852 91,98.077 C88.904,96.573 89.603,97.075 88.904,96.573 L88.904,96.573 Z M125.326,76.355 C122.543,77.436 121.379,79.234 122.274,80.857 C123.546,83.166 128.43,84.535 133.178,83.918 C137.928,83.3 140.744,80.926 139.475,78.619 C138.285,76.464 133.904,75.122 129.469,75.466 L124.857,70.798 L124.815,70.757 L124.74,70.681 L124.666,70.602 L125.326,76.355 L125.326,76.355 Z M164.242,55.39 L164.242,47.995 C164.242,46.742 163.205,45.727 161.924,45.727 C159.606,45.727 157.287,45.726 154.969,45.727 C153.69,45.727 152.65,46.742 152.65,47.995 L152.65,55.39 C152.65,56.195 153.078,56.9 153.725,57.305 L153.711,61.912 C155,60.494 156.287,59.076 157.576,57.659 L161.924,57.659 C163.205,57.659 164.242,56.644 164.242,55.39 L164.242,55.39 Z M137.607,47.686 L137.607,52.888 C137.607,53.767 136.977,54.48 136.199,54.48 L131.977,54.48 L131.949,54.479 L128.453,54.48 C127.678,54.48 127.049,53.767 127.049,52.888 L127.049,47.686 C127.049,46.806 127.678,46.092 128.453,46.092 L128.539,46.092 L128.525,46.047 L127.147,41.71 L131.164,46.092 L132.043,46.092 L132.082,46.091 L132.111,46.092 L132.609,46.092 L132.639,46.091 L132.676,46.092 L132.703,46.091 L136.199,46.092 C136.977,46.092 137.607,46.806 137.607,47.686 L137.607,47.686 Z M73.736,47.546 L73.736,53.484 C73.736,54.488 74.721,55.304 75.935,55.304 L84.892,55.304 L90.109,59.443 L90.109,59.445 L90.111,59.445 L90.109,59.441 L89.268,54.996 C89.856,54.67 90.243,54.115 90.243,53.484 L90.243,51.409 L90.242,51.352 L90.243,51.296 L90.243,50.949 L90.244,50.893 L90.244,50.834 L90.243,50.775 L90.243,47.627 L90.244,47.624 L90.244,47.617 L90.243,47.611 L90.243,47.546 C90.244,46.541 89.258,45.727 88.044,45.726 L82.579,45.727 L75.935,45.727 C74.721,45.727 73.736,46.541 73.736,47.546 L73.736,47.546 Z M60.45,50.629 C59.16,52.18 57.37,52.707 56.451,51.809 C55.832,51.201 55.767,50.107 56.18,48.984 L54.834,46.507 L54.834,46.505 L54.841,46.509 L57.001,47.519 L57.121,47.365 C58.41,45.815 60.202,45.289 61.121,46.189 C62.041,47.089 61.741,49.077 60.45,50.629 L60.45,50.629 Z M118.855,91.939 C118.803,90.057 119.503,88.418 120.697,87.334 C123.306,84.965 127.719,85.592 130.551,88.731 C133.387,91.87 133.568,96.338 130.961,98.707 C128.352,101.077 123.938,100.451 121.105,97.31 C120.596,96.747 120.215,96.202 119.865,95.56 C117.875,94.493 115.881,93.424 113.891,92.353 L118.855,91.939 L118.855,91.939 Z M75.578,119.341 C76.267,119.826 77.164,119.892 77.767,119.552 C78.56,119.108 78.677,118.121 78.03,117.349 C77.382,116.575 76.212,116.309 75.419,116.753 C74.669,117.173 74.526,118.083 75.061,118.831 C74.841,119.233 74.625,119.635 74.406,120.035 C75.578,119.341 75.186,119.572 75.578,119.341 L75.578,119.341 Z M152.795,119.352 C152.072,119.777 151.193,119.814 150.582,119.473 C149.719,118.99 149.592,117.915 150.297,117.074 C151.002,116.235 152.273,115.943 153.135,116.427 C153.951,116.882 154.111,117.875 153.527,118.69 C153.766,119.126 154.002,119.561 154.24,119.998 L152.795,119.352 L152.795,119.352 Z M150.002,111.493 C151.609,112.338 152.481,113.7 152.029,114.898 C151.465,116.405 149.022,117.084 146.572,116.414 C144.123,115.744 142.598,113.979 143.162,112.472 C143.68,111.101 145.746,110.413 147.959,110.805 L149.699,108.57 L149.701,108.569 L150.002,111.493 L150.002,111.493 Z M140.119,109.865 C142.129,111.519 145.057,111.356 146.91,109.478 C148.93,107.428 148.965,104.088 146.988,102.024 C145.012,99.957 141.772,99.944 139.748,101.995 C138.166,103.602 137.805,106.042 138.682,107.984 C138.422,108.772 138.16,109.559 137.9,110.347 L140.119,109.865 L140.119,109.865 Z M138.02,99.619 C136.986,98.785 135.955,97.95 134.922,97.114 C134.397,96.69 133.488,96.937 132.893,97.665 C131.81,98.983 130.732,100.303 129.652,101.62 C129.057,102.349 128.996,103.283 129.522,103.708 C130.557,104.542 131.59,105.378 132.621,106.214 C133.147,106.637 134.055,106.391 134.652,105.662 C135.555,106.012 136.457,106.356 137.359,106.703 L136.148,103.834 L137.891,101.706 C138.488,100.978 138.545,100.044 138.02,99.619 L138.02,99.619 Z M76.909,114.333 C77.479,116.393 78.982,117.672 80.266,117.196 C80.994,116.928 81.495,116.15 81.69,115.152 L85.261,113.828 L81.722,113.392 C81.687,113.133 81.629,112.87 81.56,112.61 C80.987,110.552 79.483,109.268 78.2,109.744 C76.915,110.219 76.336,112.273 76.909,114.333 L76.909,114.333 Z M89.266,101.582 C91.442,104.107 91.437,108.13 89.275,110.612 C87.075,113.141 83.466,113.156 81.219,110.647 C78.969,108.136 78.928,104.052 81.127,101.522 C82.805,99.596 85.353,99.134 87.428,100.147 C88.048,99.254 88.667,98.362 89.289,97.47 C89.266,101.582 89.273,100.212 89.266,101.582 L89.266,101.582 Z M90.974,98.854 C92.049,98.005 93.122,97.155 94.194,96.306 C94.74,95.873 95.675,96.137 96.28,96.894 C97.379,98.265 98.477,99.635 99.575,101.002 C100.182,101.762 100.232,102.723 99.687,103.154 C98.613,104.004 97.54,104.855 96.466,105.704 C95.922,106.136 94.988,105.872 94.381,105.113 C93.515,105.986 92.647,106.856 91.78,107.728 L92.76,103.093 L91.086,101.006 C90.48,100.247 90.43,99.285 90.974,98.854 L90.974,98.854 Z M108.313,88.121 C109.392,89.51 110.467,90.899 111.543,92.287 C112.089,92.993 111.602,94.277 110.452,95.158 C108.368,96.75 106.286,98.346 104.203,99.94 C103.054,100.818 101.677,100.96 101.131,100.255 C100.055,98.867 98.978,97.478 97.902,96.092 C97.353,95.387 97.845,94.101 98.995,93.222 C100.295,92.223 101.597,91.228 102.899,90.231 C102.821,88.911 102.745,87.593 102.67,86.274 C103.526,86.996 104.382,87.717 105.241,88.44 C106.392,87.56 107.768,87.416 108.313,88.121 L108.313,88.121 Z M175.94,46.022 C175.744,45.909 175.551,45.836 175.328,45.784 C174.211,45.533 172.982,46.09 172.576,47.026 C172.168,47.965 172.746,48.932 173.859,49.181 C174.975,49.434 176.207,48.875 176.611,47.938 C176.803,47.49 176.773,47.035 176.566,46.654 L177.277,46.191 C175.94,46.022 176.385,46.08 175.94,46.022 L175.94,46.022 Z M143.736,47.066 C144.209,46.545 144.685,46.194 145.213,45.963 C148.162,44.663 151.09,48.283 151.758,54.045 C152.422,59.808 150.57,65.534 147.621,66.833 C144.674,68.133 141.742,64.514 141.076,58.749 C140.727,55.721 141.076,52.691 141.91,50.323 C140.701,48.981 139.492,47.636 138.283,46.293 L143.736,47.066 L143.736,47.066 Z M96.738,57.486 C93.271,56.685 91.178,54.256 91.271,51.591 C91.403,47.872 95.512,44.597 100.447,44.274 C105.384,43.949 109.283,46.701 109.154,50.419 C109.031,53.869 105.468,56.943 101.01,57.621 L100.887,62.625 L96.858,57.611 L96.856,57.609 L96.845,57.596 C96.826,57.574 96.793,57.533 96.777,57.512 L96.77,57.505 L96.761,57.498 C96.755,57.492 96.75,57.49 96.742,57.487 L96.738,57.486 L96.738,57.486 Z M165.355,49.213 C164.994,47.348 166.215,45.799 168.084,45.754 C169.953,45.711 171.764,47.19 172.125,49.057 C172.488,50.924 171.27,52.473 169.398,52.515 C169.252,52.52 169.105,52.514 168.957,52.498 L166.717,54.958 L166.99,51.718 C166.17,51.113 165.551,50.221 165.355,49.213 L165.355,49.213 Z M51.458,45.999 C51.652,45.884 51.849,45.81 52.079,45.763 C53.102,45.546 54.235,46.025 54.608,46.831 C54.98,47.64 54.452,48.47 53.427,48.688 C52.401,48.903 51.27,48.424 50.898,47.617 C50.78,47.363 50.753,47.107 50.802,46.867 L49.471,45.993 L49.757,45.995 L49.744,45.985 L51.325,45.999 L51.458,45.999 L51.458,45.999 Z M76.753,56.821 C77.085,56.727 77.378,56.663 77.725,56.604 C81.129,56.039 84.29,57.435 84.786,59.725 C85.282,62.014 82.921,64.329 79.517,64.895 C76.112,65.463 72.95,64.065 72.457,61.777 C72.179,60.494 72.811,59.185 74.016,58.198 L72.272,55.921 C76.753,56.821 75.259,56.521 76.753,56.821 L76.753,56.821 Z M62.843,49.108 C62.409,49.853 62.146,50.591 62.01,51.395 C61.45,54.685 63.443,57.589 66.463,57.881 C69.482,58.175 72.387,55.744 72.948,52.455 C73.508,49.166 71.515,46.262 68.493,45.969 C67.139,45.837 65.808,46.252 64.701,47.051 L63.311,45.077 C62.843,49.108 62.998,47.766 62.843,49.108 L62.843,49.108 Z M112.435,31.877 C113.1,30.609 113.09,29.151 112.537,27.949 C111.502,25.702 108.828,24.714 106.568,25.742 C104.307,26.77 103.313,29.424 104.346,31.671 C105.381,33.918 108.054,34.907 110.315,33.878 C110.529,33.782 110.723,33.676 110.905,33.557 L113.89,35.878 C112.435,31.877 112.921,33.21 112.435,31.877 L112.435,31.877 Z M111.199,11.163 C110.375,9.643 110.281,8.05 111.102,7.106 C112.258,5.775 114.791,6.234 116.756,8.128 C118.721,10.023 119.376,12.638 118.219,13.968 C117.088,15.272 114.647,14.861 112.7,13.071 L108.839,14.848 L111.199,11.163 L111.199,11.163 Z M127.074,38.86 C126.535,37.377 125.996,35.893 125.457,34.412 C125.182,33.659 123.838,33.452 122.455,33.949 C119.953,34.847 117.451,35.749 114.947,36.649 C113.565,37.145 112.666,38.158 112.942,38.913 C113.482,40.394 114.023,41.877 114.56,43.359 C114.837,44.112 116.18,44.32 117.56,43.823 L121.553,42.387 L125.422,46.012 L125.07,41.121 C126.451,40.626 127.35,39.611 127.074,38.86 L127.074,38.86 Z M117.032,16.68 C115.613,15.209 113.599,14.541 111.775,14.761 C108.688,15.132 106.718,17.859 107.381,20.851 C108.044,23.846 111.087,25.971 114.178,25.602 C117.266,25.229 119.233,22.5 118.57,19.506 L118.526,19.318 L121.283,17.069 C117.032,16.68 118.451,16.81 117.032,16.68 L117.032,16.68 Z M115.215,32.823 C114.717,31.386 114.218,29.948 113.718,28.513 C113.465,27.781 114.09,26.904 115.117,26.552 C116.279,26.153 117.441,25.756 118.602,25.356 C119.144,23.686 119.686,22.018 120.229,20.347 L121.153,24.525 C122.014,24.389 122.794,24.704 123.01,25.325 C123.51,26.761 124.008,28.2 124.508,29.636 C124.762,30.367 124.135,31.243 123.109,31.595 C121.249,32.234 119.393,32.869 117.532,33.507 C116.508,33.861 115.469,33.553 115.215,32.823 L115.215,32.823 Z M101.588,41.951 C101.731,40.412 101.876,38.873 102.022,37.335 C102.07,36.817 102.505,36.402 103.11,36.208 L103.476,32.068 L103.522,32.137 L103.567,32.202 L103.613,32.269 L103.659,32.335 L103.702,32.4 L103.75,32.466 L103.796,32.534 L103.839,32.599 L103.886,32.665 L103.932,32.732 L103.976,32.799 L104.023,32.865 L104.068,32.931 L104.112,32.997 L104.158,33.064 L104.203,33.129 L104.249,33.196 L104.295,33.262 L104.341,33.329 L104.385,33.394 L104.431,33.46 L104.476,33.527 L104.521,33.594 L104.567,33.661 L104.612,33.726 L104.658,33.794 L104.704,33.861 L104.749,33.926 L104.794,33.992 L104.84,34.059 L104.885,34.125 L104.931,34.191 L104.977,34.256 L105.022,34.324 L105.068,34.39 L105.113,34.456 L105.157,34.522 L105.204,34.588 L105.25,34.654 L105.294,34.722 L105.341,34.787 L105.384,34.853 L105.431,34.918 L105.477,34.986 L105.522,35.053 L105.566,35.117 L105.612,35.184 L105.659,35.252 L105.703,35.318 L105.749,35.383 L105.795,35.45 L105.841,35.517 L105.884,35.582 L105.931,35.65 L105.975,35.716 L106.021,35.782 L106.068,35.848 L106.113,35.913 L106.158,35.981 L106.205,36.047 L106.25,36.114 L106.294,36.179 L106.341,36.246 L106.385,36.313 C107.629,36.428 108.875,36.544 110.116,36.661 C111.216,36.764 112.047,37.478 111.973,38.261 C111.829,39.8 111.682,41.34 111.538,42.878 C111.464,43.66 110.511,44.211 109.414,44.108 C107.424,43.922 105.434,43.738 103.444,43.553 C102.344,43.45 101.512,42.733 101.588,41.951 L101.588,41.951 Z M117.451,45.051 C121.527,44.673 124.902,46.683 124.986,49.541 C125.008,50.224 124.837,50.896 124.512,51.525 L126.42,55.281 L122.27,53.887 C121.039,54.69 119.476,55.245 117.763,55.404 C113.687,55.785 110.314,53.773 110.227,50.913 C110.141,48.056 113.375,45.431 117.451,45.051 L117.451,45.051 Z M94.876,80.535 L94.876,75.222 C94.876,74.324 95.902,73.594 97.167,73.594 L104.036,73.594 C105.299,73.594 106.327,74.324 106.326,75.222 L106.326,80.535 C106.326,81.29 105.6,81.929 104.618,82.112 L105.023,84.709 L104.966,84.67 L104.912,84.63 L104.855,84.59 L104.799,84.55 L104.746,84.512 L104.688,84.471 L104.633,84.43 L104.578,84.392 L104.521,84.351 L104.466,84.312 L104.409,84.272 L104.353,84.232 L104.298,84.192 L104.243,84.153 L104.188,84.113 L104.131,84.072 L104.074,84.033 L104.021,83.993 L103.966,83.953 L103.909,83.914 L103.854,83.875 L103.741,83.793 L103.688,83.754 L103.631,83.715 L103.576,83.676 L103.519,83.636 L103.463,83.595 L103.408,83.556 L103.353,83.516 L103.298,83.476 L103.242,83.436 L101.461,82.166 L97.167,82.166 C95.902,82.166 94.876,81.435 94.876,80.535 L94.876,80.535 Z M120.76,82.057 C120.588,78.381 118.293,75.147 115.385,74.099 C111.704,72.77 108.074,75.124 107.281,79.354 C106.486,83.584 108.83,88.095 112.513,89.422 C115.838,90.621 119.143,88.786 120.32,85.306 L125.377,84.818 L120.76,82.057 L120.76,82.057 Z M141.773,67.655 C141.785,67.135 141.764,66.687 141.703,66.153 C141.107,60.977 137.047,56.291 132.629,55.687 C128.213,55.085 125.113,58.795 125.707,63.973 C126.301,69.149 130.361,73.838 134.779,74.44 C137.635,74.828 139.975,73.381 141.07,70.931 C142.506,70.509 143.945,70.088 145.383,69.666 C141.773,67.655 142.975,68.326 141.773,67.655 L141.773,67.655 Z M100.966,69.516 C102.269,67.106 101.329,64.454 98.911,62.721 C95.27,60.11 89.233,60.02 85.432,62.519 C81.629,65.021 81.497,69.161 85.138,71.772 C88.78,74.381 94.817,74.471 98.619,71.972 C98.765,71.876 98.884,71.792 99.019,71.692 C100.08,71.972 101.144,72.249 102.204,72.527 C100.966,69.516 101.382,70.52 100.966,69.516 L100.966,69.516 Z M103.605,70.231 C103.298,67.067 102.987,63.903 102.68,60.741 C102.523,59.133 104.266,57.657 106.568,57.446 C110.739,57.06 114.908,56.673 119.08,56.287 C121.383,56.074 123.379,57.204 123.535,58.812 C123.842,61.975 124.149,65.14 124.459,68.303 C124.568,69.436 123.734,70.505 122.426,71.11 L122.81,75.977 L122.701,75.915 L122.594,75.853 L122.377,75.731 L122.27,75.67 L122.16,75.607 L122.053,75.548 L121.943,75.485 L121.836,75.422 L121.727,75.36 L121.619,75.299 L121.511,75.237 L121.403,75.176 L121.295,75.114 L121.186,75.054 L121.078,74.992 L120.969,74.931 L120.861,74.868 L120.752,74.806 L120.644,74.744 L120.536,74.684 L120.428,74.621 L120.32,74.56 L120.212,74.499 L120.102,74.437 L119.994,74.375 L119.887,74.314 L119.777,74.252 L119.67,74.19 L119.563,74.129 L119.453,74.066 L119.346,74.004 L119.236,73.942 L119.129,73.882 L119.021,73.819 L118.912,73.76 L118.803,73.696 L118.695,73.633 L118.588,73.572 L118.479,73.511 L118.371,73.45 L118.262,73.39 L118.153,73.327 L118.046,73.264 L117.938,73.203 L117.828,73.141 L117.721,73.08 L117.613,73.019 L117.505,72.957 L117.397,72.894 L117.288,72.834 L117.18,72.772 L117.07,72.71 L116.963,72.649 L116.854,72.586 L116.746,72.525 L116.637,72.464 L116.529,72.402 L116.424,72.341 L116.312,72.279 L116.205,72.217 L116.096,72.155 L115.987,72.094 L115.881,72.032 C113.273,72.274 110.666,72.515 108.06,72.756 C105.758,72.97 103.762,71.839 103.605,70.231 L103.605,70.231 Z M116.699,6.751 L114.965,5.316 L114.963,5.315 L114.834,5.373 C113.613,5.885 112.327,5.216 111.958,3.877 C111.589,2.538 112.28,1.037 113.5,0.526 C114.72,0.013 116.008,0.685 116.377,2.022 C116.549,2.652 116.488,3.316 116.248,3.899 L116.699,6.751 L116.699,6.751 Z M97.231,83.121 C99.434,83.121 101.221,85.294 101.221,87.973 C101.221,90.653 99.434,92.825 97.231,92.825 C96.986,92.825 96.746,92.799 96.514,92.747 L93.083,95.272 L94.136,91.035 C93.579,90.198 93.242,89.135 93.242,87.973 C93.242,85.294 95.029,83.121 97.231,83.121 L97.231,83.121 Z M92.081,74.78 C93.658,75.094 94.465,77.606 93.881,80.388 C93.296,83.172 91.542,85.173 89.964,84.859 C89.464,84.762 89.045,84.443 88.719,83.969 L85.789,84.62 L87.983,81.456 C87.944,80.769 88,80.021 88.163,79.253 C88.747,76.469 90.5,74.468 92.081,74.78 L92.081,74.78 Z M135.996,84.017 C138.529,83.175 141.873,85.98 143.461,90.282 C145.053,94.583 144.287,98.753 141.756,99.593 C139.221,100.437 135.879,97.63 134.289,93.328 C133.728,91.81 133.461,90.309 133.461,88.966 L129.238,85.547 L134.062,85.873 C134.494,84.96 135.143,84.3 135.996,84.017 L135.996,84.017 Z" id="Fill-4" fill="#0AB5D3" sketch:type="MSShapeGroup"></path>
            </g>
        </g>
    </g>
</svg>