<?xml version="1.0" encoding="UTF-8" standalone="no"?>
<svg width="200px" height="111px" viewBox="0 0 200 111" version="1.1" xmlns="http://www.w3.org/2000/svg" xmlns:xlink="http://www.w3.org/1999/xlink" xmlns:sketch="http://www.bohemiancoding.com/sketch/ns">
    <!-- Generator: Sketch 3.4.1 (15681) - http://www.bohemiancoding.com/sketch -->
    <title>logo</title>
    <desc>Created with Sketch.</desc>
    <defs></defs>
    <g id="Page-1" stroke="none" stroke-width="1" fill="none" fill-rule="evenodd" sketch:type="MSPage">
        <g id="[desktop]-koko" sketch:type="MSArtboardGroup" transform="translate(-621.000000, -457.000000)" fill="#FFFFFF">
            <g id="logo" sketch:type="MSLayerGroup" transform="translate(621.000000, 456.000000)">
                <path d="M67.1928571,111.997165 C65.0957143,111.997165 63.3914286,110.314329 63.3828571,108.230278 C63.3742857,106.141975 65.0742857,104.442127 67.1785714,104.435038 L131.394286,104.188354 L131.41,104.188354 C133.507143,104.188354 135.211429,105.87119 135.22,107.955241 C135.228571,110.043544 133.528571,111.741975 131.424286,111.750481 L67.2085714,111.997165 L67.1928571,111.997165" id="Fill-1" sketch:type="MSShapeGroup"></path>
                <path d="M4.24571429,89.0527595 C3.94,89.0527595 3.63142857,89.0158987 3.32142857,88.9393418 C1.28,88.4346329 0.0371428571,86.3831899 0.545714286,84.3572658 L19.4242857,9.17407595 C19.9328571,7.1481519 22.0014286,5.9161519 24.0428571,6.41944304 C26.0842857,6.9241519 27.3271429,8.97701266 26.8185714,11.0029367 L7.94,86.1847089 C7.50857143,87.9044051 5.95428571,89.0527595 4.24571429,89.0527595" id="Fill-2" sketch:type="MSShapeGroup"></path>
                <path d="M72.1242857,88.9691139 C70.5685714,88.9691139 68.9757143,88.7947342 67.3914286,88.4502278 C54.7471429,85.7041013 47.9285714,73.0084051 51.18,58.265519 C53.98,45.5698228 63.1014286,37.0408101 73.88,37.0408101 C75.4371429,37.0408101 77.0285714,37.2151899 78.6128571,37.5596962 C85.0914286,38.9660759 90.2371429,42.9796456 93.1028571,48.8617722 C95.7157143,54.2250127 96.3271429,60.9308354 94.8242857,67.7429873 C91.9828571,80.6371646 83.0714286,88.9691139 72.1242857,88.9691139 L72.1242857,88.9691139 Z M73.88,44.6029367 C66.66,44.6029367 60.6714286,50.5998987 58.6242857,59.8817215 C55.8742857,72.3562532 61.8642857,79.5086582 69.02,81.062481 C70.07,81.2907342 71.1142857,81.4055696 72.1242857,81.4055696 C79.3457143,81.4055696 85.3342857,75.4086076 87.38,66.1267848 C88.5185714,60.9606076 88.1142857,55.9985823 86.2414286,52.1537215 C84.3885714,48.3513924 81.1885714,45.859038 76.9842857,44.947443 C75.9342857,44.7191899 74.89,44.6029367 73.88,44.6029367 L73.88,44.6029367 Z" id="Fill-3" sketch:type="MSShapeGroup"></path>
                <path d="M176.474286,88.9691139 C174.917143,88.9691139 173.324286,88.7947342 171.74,88.4502278 C159.095714,85.7041013 152.277143,73.0084051 155.53,58.265519 C158.328571,45.5698228 167.451429,37.0408101 178.228571,37.0408101 C179.785714,37.0408101 181.377143,37.2151899 182.961429,37.5596962 C189.44,38.9660759 194.585714,42.9796456 197.451429,48.8617722 C200.064286,54.2250127 200.675714,60.9308354 199.172857,67.7429873 C196.33,80.6371646 187.42,88.9691139 176.474286,88.9691139 L176.474286,88.9691139 Z M178.228571,44.6029367 C171.008571,44.6029367 165.02,50.5998987 162.972857,59.8817215 C160.221429,72.3562532 166.212857,79.5086582 173.368571,81.062481 C174.418571,81.2907342 175.462857,81.4055696 176.474286,81.4055696 C183.694286,81.4055696 189.682857,75.4086076 191.73,66.1267848 C192.868571,60.9606076 192.464286,55.9985823 190.59,52.1537215 C188.738571,48.3513924 185.537143,45.859038 181.332857,44.947443 C180.282857,44.7191899 179.238571,44.6029367 178.228571,44.6029367 L178.228571,44.6029367 Z" id="Fill-4" sketch:type="MSShapeGroup"></path>
                <path d="M107.96,89.0527595 C107.677143,89.0527595 107.39,89.0215696 107.102857,88.9563544 C105.052857,88.4870886 103.771429,86.4583291 104.242857,84.4238987 C105.017143,81.088 108.661429,65.4278481 112.72,49.0375696 C102.691429,52.9277975 92.0014286,52.1026835 81.3414286,46.5225316 C79.48,45.548557 78.7671429,43.2603544 79.7485714,41.414481 C80.7314286,39.5657722 83.0342857,38.8583291 84.8971429,39.8323038 C95.4585714,45.3628354 105.62,45.2182278 115.134286,39.4140759 C118.912857,24.5478481 122.634286,10.976 124.411429,7.59473418 C126.478571,3.66339241 129.85,1.24759494 133.428571,1.13275949 C136.62,1.03351899 139.551429,2.74470886 141.441429,5.83675949 C144.831429,11.3772152 141.154286,20.7370127 139.452857,23.8758481 C137.854286,26.8204557 131.895714,36.9075443 121.808571,44.0826329 C118.324286,57.9238481 114.567143,73.619443 111.67,86.1180759 C111.264286,87.868962 109.695714,89.0527595 107.96,89.0527595 L107.96,89.0527595 Z M133.691429,8.69205063 L133.674286,8.69205063 C133.064286,8.71189873 132.02,9.47179747 131.167143,11.0936709 C130.101429,13.1224304 127.891429,20.7072405 125.218571,30.825519 C129.498571,26.0435443 132.082857,21.5068354 132.742857,20.2904304 C134.792857,16.5122025 135.727143,11.0667342 134.927143,9.76101266 C134.772857,9.50865823 134.231429,8.69205063 133.691429,8.69205063 L133.691429,8.69205063 Z" id="Fill-5" sketch:type="MSShapeGroup"></path>
                <path d="M146.188571,89.0527595 C146.018571,89.0527595 145.847143,89.0414177 145.672857,89.0173165 C127.495714,86.5802532 120.81,69.5675949 119.814286,60.9124051 C119.667143,59.6364557 120.184286,58.3718481 121.187143,57.5580759 L145.467143,37.8333165 C147.097143,36.5105823 149.497143,36.7487595 150.828571,38.3635443 C152.161429,39.9797468 151.921429,42.361519 150.294286,43.6842532 L127.735714,62.0097215 C128.824286,66.9731646 132.937143,79.6787848 146.694286,81.5246582 C148.78,81.8025316 150.241429,83.7079494 149.958571,85.7778228 C149.701429,87.6747342 148.065714,89.0527595 146.188571,89.0527595" id="Fill-6" sketch:type="MSShapeGroup"></path>
                <path d="M42.7042857,89.0527595 C42.5328571,89.0527595 42.3614286,89.0414177 42.1885714,89.0173165 C24.0114286,86.5802532 17.3257143,69.5675949 16.3285714,60.9124051 C16.1828571,59.6364557 16.6985714,58.3718481 17.7014286,57.5580759 L41.9814286,37.8333165 C43.61,36.5105823 46.0114286,36.7487595 47.3442857,38.3635443 C48.6771429,39.9797468 48.4371429,42.361519 46.8085714,43.6842532 L24.2514286,62.0097215 C25.34,66.9731646 29.4514286,79.6787848 43.2085714,81.5246582 C45.2942857,81.8025316 46.7571429,83.7079494 46.4742857,85.7778228 C46.2157143,87.6747342 44.5814286,89.0527595 42.7042857,89.0527595" id="Fill-7" sketch:type="MSShapeGroup"></path>
            </g>
        </g>
    </g>
</svg>