<?xml version="1.0" encoding="UTF-8" standalone="no"?>
<svg width="231px" height="171px" viewBox="0 0 231 171" version="1.1" xmlns="http://www.w3.org/2000/svg" xmlns:xlink="http://www.w3.org/1999/xlink" xmlns:sketch="http://www.bohemiancoding.com/sketch/ns">
    <!-- Generator: Sketch 3.5.1 (25234) - http://www.bohemiancoding.com/sketch -->
    <title>concierge logo</title>
    <desc>Created with Sketch.</desc>
    <defs></defs>
    <g id="Page-1" stroke="none" stroke-width="1" fill="none" fill-rule="evenodd" sketch:type="MSPage">
        <g id="concierge-logo" sketch:type="MSArtboardGroup" fill="#FFFFFF">
            <g id="Path-4-+-Concierge" sketch:type="MSLayerGroup">
                <path d="M58.5,84 L80.0073529,43.68 L86.625,55.44 L111.441176,0 L132.948529,38.64 L139.566176,20.16 L171,84 L58.5,84 Z" id="Path-4" sketch:type="MSShapeGroup"></path>
                <path d="M0.444,139.722 C0.444,136.913986 0.85799586,134.277012 1.686,131.811 C2.51400414,129.344988 3.71099217,127.203009 5.277,125.385 C6.84300783,123.566991 8.76898857,122.136005 11.055,121.092 C13.3410114,120.047995 15.9239856,119.526 18.804,119.526 C21.0720113,119.526 23.0339917,119.822997 24.69,120.417 C26.3460083,121.011003 27.7409943,121.748996 28.875,122.631 C30.0090057,123.513004 30.9359964,124.475995 31.656,125.52 C32.3760036,126.564005 32.9249981,127.544995 33.303,128.463 C33.6810019,129.381005 33.9419993,130.172997 34.086,130.839 C34.2300007,131.505003 34.302,131.874 34.302,131.946 L31.926,131.946 C31.6739987,130.325992 31.152004,128.877006 30.36,127.599 C29.567996,126.320994 28.5780059,125.232004 27.39,124.332 C26.2019941,123.431995 24.8790073,122.748002 23.421,122.28 C21.9629927,121.811998 20.4240081,121.578 18.804,121.578 C16.2839874,121.578 14.0340099,122.063995 12.054,123.036 C10.0739901,124.008005 8.40000684,125.312992 7.032,126.951 C5.66399316,128.589008 4.6200036,130.505989 3.9,132.702 C3.1799964,134.898011 2.82,137.237988 2.82,139.722 C2.82,142.206012 3.1799964,144.545989 3.9,146.742 C4.6200036,148.938011 5.66399316,150.854992 7.032,152.493 C8.40000684,154.131008 10.0739901,155.435995 12.054,156.408 C14.0340099,157.380005 16.2839874,157.866 18.804,157.866 C20.6760094,157.866 22.4309918,157.479004 24.069,156.705 C25.7070082,155.930996 27.1379939,154.905006 28.362,153.627 C29.5860061,152.348994 30.5669963,150.873008 31.305,149.199 C32.0430037,147.524992 32.4659995,145.788009 32.574,143.988 L34.95,143.988 C34.7339989,146.292012 34.1670046,148.41599 33.249,150.36 C32.3309954,152.30401 31.1610071,153.986993 29.739,155.409 C28.3169929,156.831007 26.6700094,157.937996 24.798,158.73 C22.9259906,159.522004 20.9280106,159.918 18.804,159.918 C15.9239856,159.918 13.3410114,159.396005 11.055,158.352 C8.76898857,157.307995 6.84300783,155.877009 5.277,154.059 C3.71099217,152.240991 2.51400414,150.099012 1.686,147.633 C0.85799586,145.166988 0.444,142.530014 0.444,139.722 L0.444,139.722 Z M38.244,145.122 C38.244,143.14199 38.5229972,141.279009 39.081,139.533 C39.6390028,137.786991 40.4579946,136.248007 41.538,134.916 C42.6180054,133.583993 43.9499921,132.531004 45.534,131.757 C47.1180079,130.982996 48.9359897,130.596 50.988,130.596 C53.0400103,130.596 54.8579921,130.982996 56.442,131.757 C58.0260079,132.531004 59.3579946,133.583993 60.438,134.916 C61.5180054,136.248007 62.3369972,137.786991 62.895,139.533 C63.4530028,141.279009 63.732,143.14199 63.732,145.122 C63.732,147.10201 63.4530028,148.973991 62.895,150.738 C62.3369972,152.502009 61.5180054,154.040993 60.438,155.355 C59.3579946,156.669007 58.0260079,157.712996 56.442,158.487 C54.8579921,159.261004 53.0400103,159.648 50.988,159.648 C48.9359897,159.648 47.1180079,159.261004 45.534,158.487 C43.9499921,157.712996 42.6180054,156.669007 41.538,155.355 C40.4579946,154.040993 39.6390028,152.502009 39.081,150.738 C38.5229972,148.973991 38.244,147.10201 38.244,145.122 L38.244,145.122 Z M40.296,145.122 C40.296,146.778008 40.5299977,148.370992 40.998,149.901 C41.4660023,151.431008 42.1499955,152.789994 43.05,153.978 C43.9500045,155.166006 45.0659933,156.110996 46.398,156.813 C47.7300067,157.515004 49.2599914,157.866 50.988,157.866 C52.7160086,157.866 54.2459933,157.515004 55.578,156.813 C56.9100067,156.110996 58.0259955,155.166006 58.926,153.978 C59.8260045,152.789994 60.5099977,151.431008 60.978,149.901 C61.4460023,148.370992 61.68,146.778008 61.68,145.122 C61.68,143.465992 61.4460023,141.873008 60.978,140.343 C60.5099977,138.812992 59.8260045,137.454006 58.926,136.266 C58.0259955,135.077994 56.9100067,134.133004 55.578,133.431 C54.2459933,132.728996 52.7160086,132.378 50.988,132.378 C49.2599914,132.378 47.7300067,132.728996 46.398,133.431 C45.0659933,134.133004 43.9500045,135.077994 43.05,136.266 C42.1499955,137.454006 41.4660023,138.812992 40.998,140.343 C40.5299977,141.873008 40.296,143.465992 40.296,145.122 L40.296,145.122 Z M68.538,131.244 L70.59,131.244 L70.59,137.184 L70.698,137.184 C71.0580018,136.139995 71.5709967,135.213004 72.237,134.403 C72.9030033,133.592996 73.6769956,132.900003 74.559,132.324 C75.4410044,131.747997 76.4039948,131.316001 77.448,131.028 C78.4920052,130.739999 79.5539946,130.596 80.634,130.596 C82.2540081,130.596 83.6309943,130.793998 84.765,131.19 C85.8990057,131.586002 86.8259964,132.107997 87.546,132.756 C88.2660036,133.404003 88.8329979,134.132996 89.247,134.943 C89.6610021,135.753004 89.9579991,136.571996 90.138,137.4 C90.3180009,138.228004 90.4259998,139.028996 90.462,139.803 C90.4980002,140.577004 90.516,141.251997 90.516,141.828 L90.516,159 L88.464,159 L88.464,141.45 C88.464,140.765997 88.4100005,139.902005 88.302,138.858 C88.1939995,137.813995 87.8790026,136.815005 87.357,135.861 C86.8349974,134.906995 86.0430053,134.088003 84.981,133.404 C83.9189947,132.719997 82.4520094,132.378 80.58,132.378 C78.9959921,132.378 77.5920061,132.665997 76.368,133.242 C75.1439939,133.818003 74.1000043,134.618995 73.236,135.645 C72.3719957,136.671005 71.7150022,137.894993 71.265,139.317 C70.8149977,140.739007 70.59,142.295992 70.59,143.988 L70.59,159 L68.538,159 L68.538,131.244 Z M117.462,139.83 C117.353999,138.605994 117.039003,137.526005 116.517,136.59 C115.994997,135.653995 115.320004,134.880003 114.492,134.268 C113.663996,133.655997 112.701005,133.188002 111.603,132.864 C110.504995,132.539998 109.326006,132.378 108.066,132.378 C106.337991,132.378 104.808007,132.728996 103.476,133.431 C102.143993,134.133004 101.028004,135.068994 100.128,136.239 C99.2279955,137.409006 98.5440023,138.740993 98.076,140.235 C97.6079977,141.729007 97.374,143.267992 97.374,144.852 C97.374,146.724009 97.5899978,148.451992 98.022,150.036 C98.4540022,151.620008 99.1199955,152.996994 100.02,154.167 C100.920004,155.337006 102.035993,156.245997 103.368,156.894 C104.700007,157.542003 106.265991,157.866 108.066,157.866 C109.362006,157.866 110.558995,157.650002 111.657,157.218 C112.755005,156.785998 113.726996,156.192004 114.573,155.436 C115.419004,154.679996 116.111997,153.771005 116.652,152.709 C117.192003,151.646995 117.551999,150.486006 117.732,149.226 L119.784,149.226 C119.567999,150.882008 119.118003,152.357994 118.434,153.654 C117.749997,154.950006 116.886005,156.038996 115.842,156.921 C114.797995,157.803004 113.610007,158.477998 112.278,158.946 C110.945993,159.414002 109.542007,159.648 108.066,159.648 C105.797989,159.648 103.863008,159.243004 102.261,158.433 C100.658992,157.622996 99.3450051,156.534007 98.319,155.166 C97.2929949,153.797993 96.5370024,152.223009 96.051,150.441 C95.5649976,148.658991 95.322,146.79601 95.322,144.852 C95.322,142.90799 95.6009972,141.072009 96.159,139.344 C96.7170028,137.615991 97.5359946,136.104006 98.616,134.808 C99.6960054,133.511994 101.027992,132.486004 102.612,131.73 C104.196008,130.973996 106.01399,130.596 108.066,130.596 C109.578008,130.596 110.990993,130.784998 112.305,131.163 C113.619007,131.541002 114.788995,132.107996 115.815,132.864 C116.841005,133.620004 117.677997,134.582994 118.326,135.753 C118.974003,136.923006 119.369999,138.281992 119.514,139.83 L117.462,139.83 Z M125.076,126.006 L125.076,120.444 L127.128,120.444 L127.128,126.006 L125.076,126.006 Z M125.076,159 L125.076,131.244 L127.128,131.244 L127.128,159 L125.076,159 Z M134.472,145.392 L134.472,145.716 C134.472,147.336008 134.687998,148.883993 135.12,150.36 C135.552002,151.836007 136.190996,153.131994 137.037,154.248 C137.883004,155.364006 138.944994,156.245997 140.223,156.894 C141.501006,157.542003 142.985992,157.866 144.678,157.866 C147.450014,157.866 149.645992,157.137007 151.266,155.679 C152.886008,154.220993 154.001997,152.196013 154.614,149.604 L156.666,149.604 C156.053997,152.844016 154.73101,155.327991 152.697,157.056 C150.66299,158.784009 147.972017,159.648 144.624,159.648 C142.57199,159.648 140.781008,159.279004 139.251,158.541 C137.720992,157.802996 136.443005,156.795006 135.417,155.517 C134.390995,154.238994 133.626003,152.727009 133.122,150.981 C132.617997,149.234991 132.366,147.35401 132.366,145.338 C132.366,143.39399 132.626997,141.531009 133.149,139.749 C133.671003,137.966991 134.453995,136.401007 135.498,135.051 C136.542005,133.700993 137.846992,132.621004 139.413,131.811 C140.979008,131.000996 142.823989,130.596 144.948,130.596 C146.89201,130.596 148.610993,130.955996 150.105,131.676 C151.599007,132.396004 152.849995,133.376994 153.858,134.619 C154.866005,135.861006 155.630997,137.300992 156.153,138.939 C156.675003,140.577008 156.936,142.331991 156.936,144.204 C156.936,144.384001 156.927,144.590999 156.909,144.825 C156.891,145.059001 156.882,145.247999 156.882,145.392 L134.472,145.392 Z M154.83,143.61 C154.758,142.097992 154.506002,140.667007 154.074,139.317 C153.641998,137.966993 153.003004,136.779005 152.157,135.753 C151.310996,134.726995 150.285006,133.908003 149.079,133.296 C147.872994,132.683997 146.496008,132.378 144.948,132.378 C143.291992,132.378 141.834006,132.692997 140.574,133.323 C139.313994,133.953003 138.252004,134.780995 137.388,135.807 C136.523996,136.833005 135.858002,138.029993 135.39,139.398 C134.921998,140.766007 134.634001,142.169993 134.526,143.61 L154.83,143.61 Z M163.74,137.4 L163.902,137.4 C164.154001,136.499995 164.612997,135.654004 165.279,134.862 C165.945003,134.069996 166.754995,133.386003 167.709,132.81 C168.663005,132.233997 169.724994,131.793002 170.895,131.487 C172.065006,131.180998 173.279994,131.046 174.54,131.082 L174.54,133.134 C173.459995,132.989999 172.227007,133.097998 170.841,133.458 C169.454993,133.818002 168.132006,134.609994 166.872,135.834 C166.367997,136.374003 165.927002,136.895997 165.549,137.4 C165.170998,137.904003 164.856001,138.461997 164.604,139.074 C164.351999,139.686003 164.154001,140.369996 164.01,141.126 C163.865999,141.882004 163.776,142.781995 163.74,143.826 L163.74,159 L161.688,159 L161.688,131.244 L163.74,131.244 L163.74,137.4 Z M199.002,131.244 L199.002,157.542 C199.002,159.090008 198.822002,160.592993 198.462,162.051 C198.101998,163.509007 197.481004,164.795994 196.599,165.912 C195.716996,167.028006 194.502008,167.918997 192.954,168.585 C191.405992,169.251003 189.444012,169.584 187.068,169.584 C185.591993,169.584 184.206006,169.431002 182.91,169.125 C181.613994,168.818998 180.480005,168.333003 179.508,167.667 C178.535995,167.000997 177.753003,166.119005 177.159,165.021 C176.564997,163.922995 176.232,162.564008 176.16,160.944 L178.212,160.944 C178.320001,162.168006 178.625997,163.211996 179.13,164.076 C179.634003,164.940004 180.290996,165.650997 181.101,166.209 C181.911004,166.767003 182.819995,167.171999 183.828,167.424 C184.836005,167.676001 185.915994,167.802 187.068,167.802 C188.97601,167.802 190.568994,167.514003 191.847,166.938 C193.125006,166.361997 194.141996,165.615005 194.898,164.697 C195.654004,163.778995 196.184998,162.735006 196.491,161.565 C196.797002,160.394994 196.95,159.216006 196.95,158.028 L196.95,151.656 L196.842,151.656 C195.869995,153.70801 194.547008,155.273995 192.873,156.354 C191.198992,157.434005 189.174012,157.974 186.798,157.974 C184.74599,157.974 182.973007,157.623004 181.479,156.921 C179.984993,156.218996 178.743005,155.247006 177.753,154.005 C176.762995,152.762994 176.025002,151.314008 175.539,149.658 C175.052998,148.001992 174.81,146.20201 174.81,144.258 C174.81,142.421991 175.070997,140.676008 175.593,139.02 C176.115003,137.363992 176.879995,135.915006 177.888,134.673 C178.896005,133.430994 180.146993,132.441004 181.641,131.703 C183.135007,130.964996 184.85399,130.596 186.798,130.596 C188.994011,130.596 191.018991,131.153994 192.873,132.27 C194.727009,133.386006 196.049996,134.96999 196.842,137.022 L196.95,137.022 L196.95,131.244 L199.002,131.244 Z M186.798,132.378 C185.105992,132.378 183.639006,132.719997 182.397,133.404 C181.154994,134.088003 180.129004,134.987994 179.319,136.104 C178.508996,137.220006 177.897002,138.488993 177.483,139.911 C177.068998,141.333007 176.862,142.781993 176.862,144.258 C176.862,145.878008 177.068998,147.416993 177.483,148.875 C177.897002,150.333007 178.526996,151.601995 179.373,152.682 C180.219004,153.762005 181.262994,154.616997 182.505,155.247 C183.747006,155.877003 185.177992,156.192 186.798,156.192 C188.490008,156.192 189.965994,155.868003 191.226,155.22 C192.486006,154.571997 193.538996,153.690006 194.385,152.574 C195.231004,151.457994 195.860998,150.189007 196.275,148.767 C196.689002,147.344993 196.896,145.842008 196.896,144.258 C196.896,142.709992 196.689002,141.216007 196.275,139.776 C195.860998,138.335993 195.231004,137.067005 194.385,135.969 C193.538996,134.870995 192.486006,133.998003 191.226,133.35 C189.965994,132.701997 188.490008,132.378 186.798,132.378 L186.798,132.378 Z M205.86,145.392 L205.86,145.716 C205.86,147.336008 206.075998,148.883993 206.508,150.36 C206.940002,151.836007 207.578996,153.131994 208.425,154.248 C209.271004,155.364006 210.332994,156.245997 211.611,156.894 C212.889006,157.542003 214.373992,157.866 216.066,157.866 C218.838014,157.866 221.033992,157.137007 222.654,155.679 C224.274008,154.220993 225.389997,152.196013 226.002,149.604 L228.054,149.604 C227.441997,152.844016 226.11901,155.327991 224.085,157.056 C222.05099,158.784009 219.360017,159.648 216.012,159.648 C213.95999,159.648 212.169008,159.279004 210.639,158.541 C209.108992,157.802996 207.831005,156.795006 206.805,155.517 C205.778995,154.238994 205.014003,152.727009 204.51,150.981 C204.005997,149.234991 203.754,147.35401 203.754,145.338 C203.754,143.39399 204.014997,141.531009 204.537,139.749 C205.059003,137.966991 205.841995,136.401007 206.886,135.051 C207.930005,133.700993 209.234992,132.621004 210.801,131.811 C212.367008,131.000996 214.211989,130.596 216.336,130.596 C218.28001,130.596 219.998993,130.955996 221.493,131.676 C222.987007,132.396004 224.237995,133.376994 225.246,134.619 C226.254005,135.861006 227.018997,137.300992 227.541,138.939 C228.063003,140.577008 228.324,142.331991 228.324,144.204 C228.324,144.384001 228.315,144.590999 228.297,144.825 C228.279,145.059001 228.27,145.247999 228.27,145.392 L205.86,145.392 Z M226.218,143.61 C226.146,142.097992 225.894002,140.667007 225.462,139.317 C225.029998,137.966993 224.391004,136.779005 223.545,135.753 C222.698996,134.726995 221.673006,133.908003 220.467,133.296 C219.260994,132.683997 217.884008,132.378 216.336,132.378 C214.679992,132.378 213.222006,132.692997 211.962,133.323 C210.701994,133.953003 209.640004,134.780995 208.776,135.807 C207.911996,136.833005 207.246002,138.029993 206.778,139.398 C206.309998,140.766007 206.022001,142.169993 205.914,143.61 L226.218,143.61 Z" id="Concierge" sketch:type="MSShapeGroup"></path>
            </g>
        </g>
    </g>
</svg>