<?xml version="1.0" encoding="UTF-8"?>
<svg width="16px" height="16px" viewBox="0 0 16 16" version="1.1" xmlns="http://www.w3.org/2000/svg" xmlns:xlink="http://www.w3.org/1999/xlink">
    <!-- Generator: Sketch 48.2 (47327) - http://www.bohemiancoding.com/sketch -->
    <title>footer-linkedin-icon_light</title>
    <desc>Created with Sketch.</desc>
    <defs></defs>
    <g id="Page-1" stroke="none" stroke-width="1" fill="none" fill-rule="evenodd">
        <path d="M2.38058036,12.9174107 L4.70089286,12.9174107 L4.70089286,5.94642857 L2.38058036,5.94642857 L2.38058036,12.9174107 Z M4.8515625,3.796875 C4.84486604,3.44865897 4.72433153,3.16071542 4.48995536,2.93303571 C4.25557919,2.705356 3.94419837,2.59151786 3.55580357,2.59151786 C3.16740877,2.59151786 2.85100569,2.705356 2.60658482,2.93303571 C2.36216396,3.16071542 2.23995536,3.44865897 2.23995536,3.796875 C2.23995536,4.13839456 2.35881578,4.42466402 2.59654018,4.65569196 C2.83426458,4.88671991 3.14397131,5.00223214 3.52566964,5.00223214 L3.53571429,5.00223214 C3.93080555,5.00223214 4.24888272,4.88671991 4.48995536,4.65569196 C4.73102799,4.42466402 4.8515625,4.13839456 4.8515625,3.796875 L4.8515625,3.796875 Z M10.7276786,12.9174107 L13.0479911,12.9174107 L13.0479911,8.91964286 C13.0479911,7.8883877 12.8035739,7.10826157 12.3147321,6.57924107 C11.8258904,6.05022057 11.1796915,5.78571429 10.3761161,5.78571429 C9.46539723,5.78571429 8.76562744,6.17745144 8.27678571,6.9609375 L8.296875,6.9609375 L8.296875,5.94642857 L5.9765625,5.94642857 C5.99665189,6.38839507 5.99665189,8.71203254 5.9765625,12.9174107 L8.296875,12.9174107 L8.296875,9.02008929 C8.296875,8.76562373 8.32031227,8.5781256 8.3671875,8.45758929 C8.46763443,8.22321311 8.61830257,8.02399636 8.81919643,7.85993304 C9.02009029,7.69586972 9.26785567,7.61383929 9.5625,7.61383929 C10.3392896,7.61383929 10.7276786,8.13950367 10.7276786,9.19084821 L10.7276786,12.9174107 Z M15.4285714,2.89285714 L15.4285714,12.5357143 C15.4285714,13.3325933 15.1456502,14.0139481 14.5797991,14.5797991 C14.0139481,15.1456502 13.3325933,15.4285714 12.5357143,15.4285714 L2.89285714,15.4285714 C2.09597816,15.4285714 1.41462336,15.1456502 0.848772321,14.5797991 C0.282921278,14.0139481 0,13.3325933 0,12.5357143 L0,2.89285714 C0,2.09597816 0.282921278,1.41462336 0.848772321,0.848772321 C1.41462336,0.282921278 2.09597816,0 2.89285714,0 L12.5357143,0 C13.3325933,0 14.0139481,0.282921278 14.5797991,0.848772321 C15.1456502,1.41462336 15.4285714,2.09597816 15.4285714,2.89285714 L15.4285714,2.89285714 Z" id="linkedin-icon" fill="#DDDDDD"></path>
    </g>
</svg>