<svg width="48" height="48" viewBox="0 0 48 48" fill="none" xmlns="http://www.w3.org/2000/svg">
<circle cx="24" cy="24" r="24" fill="#A168AB"/>
<path fill-rule="evenodd" clip-rule="evenodd" d="M36.3213 30.3309C35.5945 29.9743 35.6643 28.6776 35.6792 28.0223C35.7283 25.9193 36.3681 23.8717 36.6834 21.8033C36.8515 20.6973 36.4352 19.152 35.1035 20.4563C33.6458 21.8834 32.6061 23.7811 31.6146 25.6809C32.0201 23.4927 32.089 21.2696 30.5345 21.776C29.2654 22.1893 28.4287 23.9576 27.8193 25.0074C27.487 25.5799 27.1698 26.1679 26.8682 26.7659C26.7823 26.3711 26.6333 25.9896 26.3975 25.6333C26.138 25.2406 25.7744 24.9774 25.3617 24.8033C25.3489 22.4471 23.8552 20.338 21.2325 20.2519C18.811 20.1724 16.3407 21.5522 14.2834 23.1294C16.0487 20.301 18.1324 17.6063 17.889 14.075C17.8344 13.2851 17.4681 12.0226 16.4763 12.0005C14.9595 11.9672 13.9893 13.5732 13.2843 14.6924C11.8003 17.0499 11.0294 20.1445 10.641 22.8656C10.3621 24.8197 10.2482 27.8582 12.7848 28.2012C13.3811 28.2816 13.7847 27.394 13.0421 27.2933C11.0318 27.0216 11.6185 23.5136 11.8279 22.2187C12.1732 20.0836 12.8455 17.9457 13.7359 15.9761C14.2196 14.9059 14.86 13.7894 15.7898 13.0555C17.0026 12.0988 16.6942 16.1253 16.6481 16.3849C16.0703 19.6387 13.4873 22.1387 12.0773 25.0326C11.7739 25.6548 12.6351 25.7137 12.9775 25.3977C15.0421 23.4936 17.6569 21.5995 20.4975 21.1862C22.9511 20.8296 23.9748 22.5778 24.1295 24.5234C23.7077 24.4892 23.2843 24.5025 22.9004 24.5359C19.4077 24.8397 15.6487 27.2087 13.4551 29.8639C12.6142 30.8819 11.8218 32.2644 12.1207 33.6342C12.4807 35.2814 14.1975 36.2318 15.7865 36.2549C18.055 36.2882 20.092 34.5191 21.5214 32.9522C23.2552 31.0514 24.6364 28.6449 25.2184 26.1303C25.2285 26.0864 25.2333 26.0424 25.2424 25.9984C26.3853 27.0746 25.6846 29.3711 25.2673 30.5996C25.0612 31.231 26.1787 31.1357 26.3507 30.6293C27.1978 28.0329 28.4863 25.2555 30.2177 23.1221C30.3212 22.9981 30.4311 22.8801 30.547 22.7679C30.6744 22.6663 30.5952 22.603 30.7151 22.9071C30.9643 23.5397 30.7534 24.5028 30.6581 25.1372C30.4408 26.5807 30.0323 28.0077 29.5792 29.393C29.3749 30.0165 30.3852 29.8933 30.6122 29.5373C31.6243 27.9495 32.5175 26.2886 33.4495 24.6535C33.9002 23.8626 34.3633 23.0794 34.8537 22.3124C35.0231 22.0474 35.2045 21.7906 35.3884 21.5349C35.4862 21.4018 35.5948 21.2778 35.7053 21.1553C35.7277 21.6417 35.5104 22.3209 35.4482 22.6542C35.2592 23.6655 35.0394 24.6702 34.8625 25.684C34.5933 27.2238 34.1514 29.302 35.0944 30.6957C36.2582 32.4167 39.1592 30.471 40.2496 29.7353C40.8754 29.3135 40.1959 28.7146 39.6536 29.0806C38.8873 29.5974 37.3371 30.8292 36.3213 30.3309ZM13.26 33.4947C12.7438 32.054 14.0709 30.4831 14.9856 29.5428C16.3856 28.1042 18.1728 27.0046 20.0104 26.2195C21.1921 25.7149 22.7924 25.1618 24.1402 25.4595C24.1056 26.0861 23.9915 26.7017 23.8154 27.2442C22.9523 29.9012 21.1223 32.4664 18.9039 34.1573C17.195 35.4601 14.175 36.0474 13.26 33.4947Z" fill="#EEEEEE"/>
<path d="M36.3213 30.3309L36.2112 30.5554L36.2113 30.5554L36.3213 30.3309ZM35.6792 28.0223L35.4292 28.0165L35.4292 28.0166L35.6792 28.0223ZM36.6834 21.8033L36.9305 21.841L36.9306 21.8409L36.6834 21.8033ZM35.1035 20.4563L35.2784 20.6349L35.2784 20.6349L35.1035 20.4563ZM31.6146 25.6809L31.3688 25.6354L31.8363 25.7966L31.6146 25.6809ZM30.5345 21.776L30.612 22.0137L30.612 22.0137L30.5345 21.776ZM27.8193 25.0074L27.6031 24.8819L27.6031 24.8819L27.8193 25.0074ZM26.8682 26.7659L26.6239 26.8191L26.7738 27.5081L27.0914 26.8785L26.8682 26.7659ZM26.3975 25.6333L26.1889 25.7711L26.189 25.7713L26.3975 25.6333ZM25.3617 24.8033L25.1117 24.8047L25.1126 24.9696L25.2645 25.0337L25.3617 24.8033ZM21.2325 20.2519L21.2407 20.002L21.2407 20.002L21.2325 20.2519ZM14.2834 23.1294L14.0713 22.997L14.4355 23.3278L14.2834 23.1294ZM17.889 14.075L18.1384 14.0578L18.1384 14.0578L17.889 14.075ZM16.4763 12.0005L16.4819 11.7506L16.4818 11.7506L16.4763 12.0005ZM13.2843 14.6924L13.0727 14.5592L13.0727 14.5593L13.2843 14.6924ZM10.641 22.8656L10.3935 22.8302L10.3935 22.8302L10.641 22.8656ZM12.7848 28.2012L12.7513 28.449L12.7514 28.449L12.7848 28.2012ZM13.0421 27.2933L13.0757 27.0456L13.0756 27.0455L13.0421 27.2933ZM11.8279 22.2187L11.5811 22.1788L11.5811 22.1788L11.8279 22.2187ZM13.7359 15.9761L13.9637 16.0791L13.9637 16.0791L13.7359 15.9761ZM15.7898 13.0555L15.635 12.8592L15.635 12.8593L15.7898 13.0555ZM16.6481 16.3849L16.4019 16.3411L16.4019 16.3412L16.6481 16.3849ZM12.0773 25.0326L12.302 25.1422L12.3021 25.1421L12.0773 25.0326ZM12.9775 25.3977L12.808 25.2139L12.8079 25.214L12.9775 25.3977ZM20.4975 21.1862L20.4615 20.9388L20.4615 20.9388L20.4975 21.1862ZM24.1295 24.5234L24.1093 24.7726L24.402 24.7964L24.3788 24.5036L24.1295 24.5234ZM22.9004 24.5359L22.8788 24.2868L22.8788 24.2868L22.9004 24.5359ZM13.4551 29.8639L13.2624 29.7047L13.2624 29.7047L13.4551 29.8639ZM12.1207 33.6342L11.8765 33.6875L11.8765 33.6876L12.1207 33.6342ZM15.7865 36.2549L15.7902 36.0049L15.7901 36.0049L15.7865 36.2549ZM21.5214 32.9522L21.7061 33.1207L21.7061 33.1207L21.5214 32.9522ZM25.2184 26.1303L25.462 26.1867L25.4622 26.1859L25.2184 26.1303ZM25.2424 25.9984L25.4138 25.8164L25.0883 25.5099L24.9976 25.9477L25.2424 25.9984ZM25.2673 30.5996L25.0306 30.5192L25.0296 30.522L25.2673 30.5996ZM26.3507 30.6293L26.5875 30.7098L26.5884 30.7069L26.3507 30.6293ZM30.2177 23.1221L30.0257 22.9619L30.0236 22.9646L30.2177 23.1221ZM30.547 22.7679L30.3912 22.5724L30.3818 22.5799L30.3731 22.5883L30.547 22.7679ZM30.7151 22.9071L30.9477 22.8155L30.9477 22.8154L30.7151 22.9071ZM30.6581 25.1372L30.9053 25.1744L30.9053 25.1743L30.6581 25.1372ZM29.5792 29.393L29.8168 29.4708L29.8168 29.4707L29.5792 29.393ZM30.6122 29.5373L30.823 29.6717L30.823 29.6717L30.6122 29.5373ZM33.4495 24.6535L33.6667 24.7773L33.6667 24.7773L33.4495 24.6535ZM34.8537 22.3124L35.0643 22.4471L35.0644 22.4471L34.8537 22.3124ZM35.3884 21.5349L35.1869 21.387L35.1855 21.3889L35.3884 21.5349ZM35.7053 21.1553L35.955 21.1437L35.927 20.5361L35.5196 20.9878L35.7053 21.1553ZM35.4482 22.6542L35.694 22.7001L35.694 22.7001L35.4482 22.6542ZM34.8625 25.684L35.1088 25.727L35.1088 25.7269L34.8625 25.684ZM35.0944 30.6957L35.3015 30.5557L35.3014 30.5556L35.0944 30.6957ZM40.2496 29.7353L40.1099 29.528L40.1098 29.5281L40.2496 29.7353ZM39.6536 29.0806L39.7934 29.2879L39.7934 29.2879L39.6536 29.0806ZM13.26 33.4947L13.0247 33.579L13.0247 33.5791L13.26 33.4947ZM14.9856 29.5428L14.8064 29.3684L14.8064 29.3685L14.9856 29.5428ZM20.0104 26.2195L19.9122 25.9896L19.9121 25.9896L20.0104 26.2195ZM24.1402 25.4595L24.3898 25.4733L24.4015 25.2613L24.1941 25.2154L24.1402 25.4595ZM23.8154 27.2442L24.0532 27.3214L24.0532 27.3213L23.8154 27.2442ZM18.9039 34.1573L18.7523 33.9585L18.7523 33.9585L18.9039 34.1573ZM36.4315 30.1065C36.1848 29.9855 36.0381 29.6846 35.969 29.2494C35.9018 28.8262 35.9215 28.3646 35.9291 28.028L35.4292 28.0166C35.422 28.3353 35.3993 28.8497 35.4752 29.3278C35.5492 29.7939 35.731 30.3197 36.2112 30.5554L36.4315 30.1065ZM35.9291 28.0281C35.9532 26.9988 36.1219 25.9782 36.3267 24.9486C36.5301 23.9259 36.7718 22.8825 36.9305 21.841L36.4363 21.7656C36.2797 22.7926 36.0439 23.8071 35.8363 24.8511C35.63 25.8881 35.4543 26.9428 35.4292 28.0165L35.9291 28.0281ZM36.9306 21.8409C36.9759 21.5424 36.982 21.215 36.9427 20.9108C36.9039 20.6107 36.818 20.3105 36.6616 20.0839C36.4982 19.8472 36.2464 19.6803 35.9121 19.7121C35.6036 19.7414 35.2764 19.937 34.9285 20.2777L35.2784 20.6349C35.5964 20.3234 35.8206 20.223 35.9594 20.2099C36.0725 20.1991 36.164 20.2432 36.2501 20.368C36.3433 20.503 36.4132 20.7149 36.4468 20.9749C36.4799 21.2307 36.4749 21.5112 36.4362 21.7657L36.9306 21.8409ZM34.9286 20.2776C33.4387 21.7363 32.3828 23.6686 31.393 25.5653L31.8363 25.7966C32.8294 23.8936 33.853 22.0304 35.2784 20.6349L34.9286 20.2776ZM31.8605 25.7265C32.0635 24.6305 32.1903 23.4899 32.0562 22.6773C31.9896 22.2736 31.8511 21.9017 31.5761 21.6727C31.2834 21.4289 30.8978 21.3947 30.4571 21.5383L30.612 22.0137C30.9485 21.9041 31.1372 21.9579 31.2561 22.0569C31.3927 22.1706 31.5031 22.3963 31.5629 22.7587C31.6816 23.478 31.5712 24.5431 31.3688 25.6354L31.8605 25.7265ZM30.4571 21.5383C29.7433 21.7708 29.1774 22.3724 28.7257 23.0082C28.2729 23.6456 27.8987 24.3726 27.6031 24.8819L28.0355 25.1329C28.3492 24.5924 28.6981 23.9103 29.1333 23.2978C29.5696 22.6837 30.0566 22.1946 30.612 22.0137L30.4571 21.5383ZM27.6031 24.8819C27.2681 25.459 26.9487 26.0513 26.645 26.6533L27.0914 26.8785C27.391 26.2846 27.7058 25.7009 28.0355 25.1329L27.6031 24.8819ZM27.1125 26.7128C27.0208 26.2914 26.8608 25.8805 26.6059 25.4953L26.189 25.7713C26.4057 26.0988 26.5438 26.4508 26.6239 26.8191L27.1125 26.7128ZM26.606 25.4955C26.3139 25.0534 25.907 24.762 25.4588 24.573L25.2645 25.0337C25.6418 25.1928 25.9621 25.4278 26.1889 25.7711L26.606 25.4955ZM25.6117 24.802C25.5984 22.3452 24.0291 20.0936 21.2407 20.002L21.2243 20.5017C23.6813 20.5824 25.0995 22.549 25.1117 24.8047L25.6117 24.802ZM21.2407 20.002C18.7276 19.9196 16.1974 21.347 14.1312 22.931L14.4355 23.3278C16.4839 21.7574 18.8944 20.4253 21.2243 20.5017L21.2407 20.002ZM14.4954 23.2618C16.2385 20.4691 18.3888 17.6904 18.1384 14.0578L17.6396 14.0922C17.876 17.5223 15.8589 20.1329 14.0713 22.997L14.4954 23.2618ZM18.1384 14.0578C18.1096 13.6402 17.9987 13.0898 17.7547 12.6322C17.51 12.1731 17.104 11.7645 16.4819 11.7506L16.4707 12.2504C16.8404 12.2587 17.1135 12.4923 17.3135 12.8674C17.5143 13.2441 17.6139 13.7199 17.6396 14.0923L18.1384 14.0578ZM16.4818 11.7506C15.625 11.7317 14.9404 12.1785 14.3963 12.7403C13.8542 13.3 13.4212 14.006 13.0727 14.5592L13.4958 14.8257C13.8524 14.2596 14.257 13.6029 14.7555 13.0882C15.2519 12.5755 15.8108 12.2359 16.4708 12.2505L16.4818 11.7506ZM13.0727 14.5593C11.5609 16.9608 10.7837 20.0965 10.3935 22.8302L10.8884 22.9009C11.2751 20.1926 12.0396 17.139 13.4959 14.8256L13.0727 14.5593ZM10.3935 22.8302C10.2532 23.8127 10.1485 25.1008 10.4141 26.1965C10.5476 26.7473 10.7782 27.2643 11.1583 27.6688C11.5419 28.0771 12.0642 28.3561 12.7513 28.449L12.8183 27.9535C12.237 27.8749 11.8224 27.6454 11.5227 27.3264C11.2194 27.0037 11.0202 26.5746 10.9 26.0787C10.6581 25.0808 10.7498 23.8726 10.8884 22.9009L10.3935 22.8302ZM12.7514 28.449C13.1848 28.5074 13.5341 28.2167 13.6502 27.9015C13.7102 27.7383 13.7193 27.538 13.6138 27.361C13.5063 27.1805 13.312 27.0776 13.0757 27.0456L13.0085 27.541C13.1435 27.5593 13.1772 27.6051 13.1843 27.6169C13.1933 27.6321 13.2035 27.6676 13.1809 27.7288C13.1317 27.8624 12.9811 27.9754 12.8181 27.9535L12.7514 28.449ZM13.0756 27.0455C12.6588 26.9892 12.3817 26.7714 12.1912 26.4425C11.994 26.1023 11.89 25.6412 11.8519 25.1215C11.776 24.0828 11.9691 22.9113 12.0747 22.2587L11.5811 22.1788C11.4772 22.8211 11.2723 24.051 11.3533 25.1579C11.3937 25.711 11.5068 26.2588 11.7585 26.6932C12.0168 27.1389 12.4203 27.4615 13.0086 27.541L13.0756 27.0455ZM12.0747 22.2587C12.4162 20.1473 13.0815 18.0305 13.9637 16.0791L13.5081 15.8731C12.6094 17.8608 11.9303 20.0199 11.5811 22.1788L12.0747 22.2587ZM13.9637 16.0791C14.4432 15.0183 15.0634 13.9473 15.9447 13.2518L15.635 12.8593C14.6566 13.6314 13.9961 14.7935 13.5081 15.8731L13.9637 16.0791ZM15.9447 13.2518C16.071 13.1521 16.127 13.1583 16.1332 13.1594C16.1367 13.16 16.1722 13.1671 16.2249 13.2595C16.3351 13.4526 16.4073 13.8226 16.4417 14.2827C16.4751 14.7291 16.4704 15.2163 16.4542 15.6103C16.4377 16.0103 16.4101 16.2949 16.4019 16.3411L16.8942 16.4286C16.9091 16.345 16.9374 16.0289 16.9538 15.6309C16.9704 15.2268 16.9757 14.7185 16.9403 14.2454C16.906 13.786 16.8308 13.3125 16.6592 13.0117C16.571 12.857 16.4319 12.7045 16.2204 12.6671C16.0116 12.6301 15.8118 12.7197 15.635 12.8592L15.9447 13.2518ZM16.4019 16.3412C16.122 17.9174 15.3546 19.3214 14.4644 20.7087C13.5827 22.0826 12.5661 23.4586 11.8526 24.9231L12.3021 25.1421C12.9985 23.7126 13.9784 22.3917 14.8852 20.9787C15.7833 19.5791 16.5963 18.1062 16.8942 16.4286L16.4019 16.3412ZM11.8526 24.923C11.7572 25.1186 11.7277 25.3248 11.8176 25.5071C11.9055 25.6854 12.0748 25.7735 12.2267 25.81C12.3811 25.8472 12.5515 25.8414 12.707 25.8048C12.8621 25.7683 13.0224 25.6964 13.147 25.5814L12.8079 25.214C12.7614 25.2569 12.6857 25.2962 12.5925 25.3181C12.4997 25.3399 12.4096 25.3398 12.3437 25.3239C12.3116 25.3162 12.2908 25.3061 12.2789 25.298C12.268 25.2906 12.2661 25.2861 12.266 25.2861C12.2658 25.2856 12.2651 25.2841 12.2645 25.2807C12.2639 25.2772 12.2632 25.2705 12.264 25.2597C12.2658 25.2376 12.2742 25.1992 12.302 25.1422L11.8526 24.923ZM13.147 25.5815C15.2034 23.6849 17.7711 21.8355 20.5335 21.4336L20.4615 20.9388C17.5427 21.3635 14.8807 23.3023 12.808 25.2139L13.147 25.5815ZM20.5334 21.4336C21.6892 21.2656 22.4721 21.5933 22.9912 22.1603C23.5218 22.7399 23.8054 23.6015 23.8803 24.5432L24.3788 24.5036C24.2989 23.4997 23.9933 22.5144 23.36 21.8226C22.7151 21.1182 21.7594 20.7501 20.4615 20.9388L20.5334 21.4336ZM24.1498 24.2742C23.7101 24.2385 23.272 24.2526 22.8788 24.2868L22.9221 24.7849C23.2966 24.7524 23.7053 24.7398 24.1093 24.7726L24.1498 24.2742ZM22.8788 24.2868C19.3042 24.5978 15.488 27.0108 13.2624 29.7047L13.6479 30.0231C15.8095 27.4066 19.5112 25.0817 22.9221 24.7849L22.8788 24.2868ZM13.2624 29.7047C12.4144 30.7312 11.551 32.1961 11.8765 33.6875L12.365 33.5809C12.0926 32.3328 12.814 31.0326 13.6479 30.0231L13.2624 29.7047ZM11.8765 33.6876C12.2697 35.4869 14.1225 36.4808 15.7829 36.5048L15.7901 36.0049C14.2724 35.9829 12.6917 35.076 12.365 33.5808L11.8765 33.6876ZM15.7828 36.5048C16.984 36.5225 18.1092 36.063 19.1053 35.413C20.1017 34.7627 20.9846 33.9116 21.7061 33.1207L21.3367 32.7837C20.6288 33.5597 19.7785 34.3766 18.832 34.9943C17.8851 35.6122 16.8576 36.0206 15.7902 36.0049L15.7828 36.5048ZM21.7061 33.1207C23.4641 31.1934 24.8688 28.7494 25.462 26.1867L24.9749 26.074C24.4039 28.5404 23.0463 30.9095 21.3367 32.7837L21.7061 33.1207ZM25.4622 26.1859C25.4691 26.1556 25.4739 26.1268 25.4775 26.1048C25.4814 26.0807 25.484 26.0648 25.4872 26.0491L24.9976 25.9477C24.9917 25.976 24.9873 26.0041 24.9841 26.0239C24.9805 26.0459 24.9778 26.0611 24.9747 26.0748L25.4622 26.1859ZM25.071 26.1804C25.555 26.6362 25.6735 27.3766 25.5911 28.2175C25.5097 29.0486 25.2388 29.9062 25.0306 30.5192L25.504 30.68C25.7131 30.0646 26.0012 29.1596 26.0887 28.2663C26.1753 27.3829 26.0727 26.4369 25.4138 25.8164L25.071 26.1804ZM25.0296 30.522C24.9558 30.7484 24.9884 30.9719 25.1565 31.1261C25.3028 31.2602 25.505 31.2961 25.6746 31.291C25.8514 31.2858 26.0402 31.2357 26.2018 31.1453C26.3622 31.0557 26.5184 30.9129 26.5874 30.7097L26.114 30.5489C26.097 30.5989 26.049 30.658 25.9579 30.7089C25.8681 30.7591 25.7581 30.7883 25.6598 30.7912C25.5543 30.7944 25.505 30.7673 25.4944 30.7575C25.493 30.7562 25.4934 30.7572 25.4929 30.7547C25.4919 30.7494 25.489 30.726 25.505 30.6772L25.0296 30.522ZM26.5884 30.7069C27.4298 28.1276 28.7063 25.3811 30.4118 23.2797L30.0236 22.9646C28.2664 25.1298 26.9657 27.9382 26.1131 30.5518L26.5884 30.7069ZM30.4097 23.2823C30.5073 23.1652 30.6111 23.0537 30.7208 22.9476L30.3731 22.5883C30.251 22.7065 30.1351 22.831 30.0257 22.962L30.4097 23.2823ZM30.7028 22.9634C30.7558 22.9212 30.7883 22.8817 30.8054 22.8602C30.8079 22.8571 30.8081 22.8568 30.8096 22.8549C30.8106 22.8536 30.8108 22.8535 30.8105 22.8539C30.8102 22.8542 30.8086 22.8561 30.8061 22.8589C30.8037 22.8615 30.7988 22.8666 30.792 22.8728C30.7838 22.8802 30.7452 22.9152 30.6811 22.9287C30.6448 22.9364 30.6039 22.9363 30.5625 22.9244C30.5224 22.9128 30.4923 22.8932 30.4717 22.8756C30.4354 22.8447 30.4188 22.8116 30.4156 22.8053C30.4126 22.7995 30.4107 22.7951 30.4098 22.7929C30.4093 22.7917 30.4089 22.7908 30.4087 22.7902C30.4085 22.7896 30.4083 22.7893 30.4083 22.7892C30.4083 22.7892 30.4085 22.7898 30.4091 22.7913C30.4096 22.7929 30.4103 22.7949 30.4112 22.7977C30.4132 22.8037 30.4152 22.8102 30.4184 22.8198C30.4307 22.8578 30.45 22.9162 30.4825 22.9988L30.9477 22.8154C30.9203 22.746 30.9046 22.6982 30.894 22.6657C30.8895 22.6518 30.8831 22.6315 30.8774 22.616C30.8744 22.608 30.8688 22.5935 30.8607 22.5775C30.8545 22.5655 30.8352 22.5284 30.7961 22.4951C30.745 22.4515 30.6665 22.4208 30.578 22.4395C30.511 22.4536 30.469 22.4908 30.4572 22.5015C30.4415 22.5156 30.4301 22.5293 30.4262 22.534C30.4217 22.5394 30.4164 22.5461 30.4149 22.5479C30.4073 22.5574 30.4019 22.5639 30.3912 22.5724L30.7028 22.9634ZM30.4825 22.9987C30.5853 23.2597 30.5993 23.6109 30.5666 24.0006C30.534 24.3889 30.4605 24.7692 30.4108 25.1001L30.9053 25.1743C30.9509 24.8708 31.0305 24.4523 31.0649 24.0424C31.0992 23.6337 31.0941 23.1871 30.9477 22.8155L30.4825 22.9987ZM30.4108 25.1C30.1966 26.5231 29.7931 27.9348 29.3416 29.3153L29.8168 29.4707C30.2715 28.0807 30.6849 26.6382 30.9053 25.1744L30.4108 25.1ZM29.3416 29.3151C29.2716 29.5289 29.2891 29.7464 29.4444 29.9041C29.5811 30.0428 29.7748 30.0808 29.9314 30.0824C30.0959 30.0842 30.2708 30.0471 30.4232 29.9831C30.571 29.921 30.7282 29.8204 30.823 29.6717L30.4014 29.4029C30.3827 29.4323 30.3286 29.4805 30.2295 29.5222C30.1349 29.5619 30.0275 29.5834 29.9366 29.5825C29.8917 29.582 29.8568 29.5761 29.8324 29.5683C29.8079 29.5605 29.8004 29.553 29.8006 29.5532C29.8169 29.5697 29.7847 29.5688 29.8168 29.4708L29.3416 29.3151ZM30.823 29.6717C31.8396 28.0769 32.7388 26.4053 33.6667 24.7773L33.2323 24.5297C32.2962 26.172 31.4091 27.8221 30.4014 29.4029L30.823 29.6717ZM33.6667 24.7773C34.1161 23.9886 34.577 23.2093 35.0643 22.4471L34.6431 22.1778C34.1496 22.9495 33.6842 23.7367 33.2323 24.5297L33.6667 24.7773ZM35.0644 22.4471C35.2298 22.1881 35.408 21.9359 35.5914 21.6809L35.1855 21.3889C35.0011 21.6453 34.8163 21.9067 34.643 22.1778L35.0644 22.4471ZM35.59 21.6829C35.6798 21.5604 35.7814 21.4442 35.8909 21.3227L35.5196 20.9878C35.4083 21.1113 35.2925 21.2431 35.1869 21.387L35.59 21.6829ZM35.4555 21.1668C35.4652 21.3752 35.4229 21.6395 35.3642 21.909C35.3354 22.0415 35.3039 22.1696 35.2749 22.2887C35.2465 22.4051 35.2195 22.517 35.2025 22.6083L35.694 22.7001C35.708 22.6247 35.7315 22.5268 35.7607 22.4069C35.7892 22.2897 35.8223 22.1551 35.8528 22.0154C35.9127 21.7403 35.9678 21.4217 35.955 21.1437L35.4555 21.1668ZM35.2025 22.6083C35.016 23.6055 34.7928 24.6293 34.6162 25.641L35.1088 25.7269C35.2861 24.7111 35.5023 23.7255 35.694 22.7001L35.2025 22.6083ZM34.6162 25.6409C34.4831 26.4023 34.3009 27.3285 34.274 28.2373C34.2471 29.1462 34.3733 30.0761 34.8873 30.8358L35.3014 30.5556C34.8725 29.9217 34.7482 29.1156 34.7738 28.2521C34.7994 27.3883 34.9727 26.5055 35.1088 25.727L34.6162 25.6409ZM34.8873 30.8358C35.224 31.3337 35.6936 31.5687 36.2111 31.6237C36.7172 31.6775 37.2641 31.5596 37.7844 31.3719C38.825 30.9966 39.8473 30.3084 40.3895 29.9426L40.1098 29.5281C39.5615 29.898 38.5882 30.5504 37.6147 30.9016C37.128 31.0772 36.6632 31.169 36.264 31.1265C35.8762 31.0853 35.5466 30.9182 35.3015 30.5557L34.8873 30.8358ZM40.3894 29.9426C40.5841 29.8114 40.7153 29.6398 40.7442 29.4393C40.7734 29.2369 40.6906 29.0578 40.5649 28.9342C40.3191 28.6926 39.8816 28.6251 39.5137 28.8734L39.7934 29.2879C39.9679 29.1701 40.1413 29.219 40.2144 29.2908C40.2482 29.324 40.2518 29.3508 40.2493 29.3679C40.2466 29.3869 40.228 29.4484 40.1099 29.528L40.3894 29.9426ZM39.5138 28.8734C39.1151 29.1422 38.5598 29.5626 37.9677 29.8635C37.3621 30.1714 36.822 30.298 36.4314 30.1065L36.2113 30.5554C36.8365 30.862 37.5794 30.6219 38.1943 30.3092C38.8229 29.9897 39.4258 29.5358 39.7934 29.2879L39.5138 28.8734ZM13.4954 33.4104C13.2723 32.7879 13.4388 32.1146 13.805 31.452C14.1699 30.7919 14.7112 30.1834 15.1648 29.7171L14.8064 29.3685C14.3453 29.8425 13.7657 30.4897 13.3674 31.2102C12.9705 31.9283 12.7315 32.7607 13.0247 33.579L13.4954 33.4104ZM15.1648 29.7171C16.536 28.308 18.2929 27.2251 20.1086 26.4494L19.9121 25.9896C18.0527 26.7841 16.2351 27.9003 14.8064 29.3684L15.1648 29.7171ZM20.1085 26.4494C20.6936 26.1996 21.3735 25.9416 22.0689 25.7823C22.7659 25.6226 23.4623 25.5658 24.0862 25.7037L24.1941 25.2154C23.4703 25.0555 22.6927 25.1264 21.9572 25.2949C21.22 25.4639 20.5089 25.7348 19.9122 25.9896L20.1085 26.4494ZM23.8905 25.4458C23.8571 26.052 23.7466 26.6462 23.5776 27.167L24.0532 27.3213C24.2363 26.7571 24.3541 26.1202 24.3898 25.4733L23.8905 25.4458ZM23.5777 27.1669C22.7304 29.7751 20.9307 32.2981 18.7523 33.9585L19.0554 34.3561C21.3139 32.6347 23.1742 30.0273 24.0532 27.3214L23.5777 27.1669ZM18.7523 33.9585C17.9326 34.5834 16.8031 35.0306 15.7864 35.0218C15.2814 35.0174 14.8137 34.9009 14.4233 34.6484C14.0353 34.3975 13.7074 34.002 13.4953 33.4103L13.0247 33.5791C13.2701 34.2638 13.6629 34.7521 14.1518 35.0683C14.6384 35.383 15.2041 35.5168 15.7821 35.5218C16.9313 35.5318 18.1663 35.034 19.0554 34.3561L18.7523 33.9585Z" fill="#EEEEEE"/>
</svg>
