<svg width="24" height="24" viewBox="0 0 24 24" fill="none" xmlns="http://www.w3.org/2000/svg">
<rect width="24" height="24" rx="12" fill="#A168AB"/>
<path d="M19.6209 10.9763C19.8736 10.9763 20 11.1027 20 11.3554V12.9479C20 13.2006 19.8736 13.327 19.6209 13.327H13.327C13.2259 13.327 13.1754 13.3776 13.1754 13.4787V19.6209C13.1754 19.8736 13.049 20 12.7962 20H11.2038C10.951 20 10.8246 19.8736 10.8246 19.6209V13.4787C10.8246 13.3776 10.7741 13.327 10.673 13.327H4.37915C4.12638 13.327 4 13.2006 4 12.9479V11.3554C4 11.1027 4.12638 10.9763 4.37915 10.9763H10.673C10.7741 10.9763 10.8246 10.9257 10.8246 10.8246V4.37915C10.8246 4.12638 10.951 4 11.2038 4H12.7962C13.049 4 13.1754 4.12638 13.1754 4.37915V10.8246C13.1754 10.9257 13.2259 10.9763 13.327 10.9763H19.6209Z" fill="white"/>
</svg>
