<?xml version="1.0" encoding="UTF-8" standalone="no"?>
<svg width="250px" height="59px" viewBox="0 0 250 59" version="1.1" xmlns="http://www.w3.org/2000/svg" xmlns:xlink="http://www.w3.org/1999/xlink" xmlns:sketch="http://www.bohemiancoding.com/sketch/ns">
    <!-- Generator: Sketch 3.4.1 (15681) - http://www.bohemiancoding.com/sketch -->
    <title>crowdtap_logo_knockout</title>
    <desc>Created with Sketch.</desc>
    <defs>
        <path id="path-1" d="M0.0382653061,0.210906731 L249.419643,0.210906731 L249.419643,57.7170605 L0.0382653061,57.7170605 L0.0382653061,0.210906731 Z"></path>
    </defs>
    <g id="Page-1" stroke="none" stroke-width="1" fill="none" fill-rule="evenodd" sketch:type="MSPage">
        <g id="iPhone-6" sketch:type="MSArtboardGroup" transform="translate(-62.000000, -282.000000)">
            <g id="(a-redesign)-+-crowdtap_logo_knockout" sketch:type="MSLayerGroup" transform="translate(62.000000, 282.000000)">
                <g id="crowdtap_logo_knockout" transform="translate(0.500000, 0.500000)">
                    <g id="Group-6">
                        <mask id="mask-2" sketch:name="Clip 2" fill="white">
                            <use xlink:href="#path-1"></use>
                        </mask>
                        <g id="Clip-2"></g>
                        <path d="M242.373724,32.659394 C242.38648,35.0384219 242.037628,37.5472386 240.680485,39.5479323 C239.825893,40.856203 238.369898,41.6135204 236.903061,41.9704395 C235.024872,42.3695399 233.077806,42.3254117 231.18176,42.080111 C229.88648,41.9237155 228.607143,41.5226683 227.514668,40.7900107 C226.271684,39.9424902 225.516582,38.5466121 225.087372,37.1247762 C224.713648,35.8171545 224.487245,34.4628088 224.508291,33.1019737 C224.445791,30.0331185 224.365434,26.7325904 225.984056,24.012867 C227.129464,22.0511099 229.385842,21.1360992 231.527423,20.9031284 C233.371811,20.6954663 235.267857,20.6604234 237.085459,21.0932689 C238.183036,21.3891873 239.260204,21.9076933 240.053571,22.753916 C241.024872,23.6819057 241.571429,24.9687612 241.919643,26.2569146 C242.429847,28.3478115 242.45727,30.5211242 242.373724,32.659394 L242.373724,32.659394 Z M249.403061,30.3199517 C249.387117,28.1382026 249.125638,25.9603473 248.619898,23.8402479 C248.079082,21.4592732 246.986607,19.1743421 245.285077,17.4306301 C244.093112,16.2514993 242.610332,15.3961914 241.037628,14.8640575 C237.865434,13.7816192 234.461735,13.8925886 231.17602,14.1982411 C228.433036,14.5084363 225.558036,15.1995614 223.471939,17.1574248 C223.390944,16.5857053 223.368622,16.0087943 223.310587,15.4383727 C223.257015,14.9886547 222.82398,14.7433539 222.409439,14.7628222 C221.03125,14.823823 219.655612,14.9789205 218.274235,15.0126656 C217.663265,15.054198 217.526148,15.758302 217.524235,16.2651271 C217.520408,29.7897646 217.520408,43.3144021 217.526148,56.8377417 C217.475765,57.2751298 217.781888,57.7040816 218.242347,57.6709855 C220.096301,57.7761144 221.961097,57.7949338 223.814413,57.6599535 C224.289541,57.6326978 224.427934,57.0973192 224.425383,56.6969209 C224.446429,53.1575815 224.415179,49.6156463 224.439413,46.0769558 C225.496173,46.9854771 226.754464,47.6363677 228.095663,47.9822547 C230.410077,48.6221133 232.822704,48.7681257 235.211097,48.7493063 C238.232781,48.7259443 241.389668,48.1542248 243.905612,46.3449696 C245.936224,44.9445489 247.355867,42.7790235 248.149872,40.440879 C249.234056,37.1922664 249.495536,33.7275555 249.403061,30.3199517 L249.403061,30.3199517 Z" id="Fill-1" fill="#FFFFFF" sketch:type="MSShapeGroup" mask="url(#mask-2)"></path>
                        <path d="M204.915179,37.2980442 C204.466837,38.8353921 203.545281,40.2805899 202.16773,41.1040995 C199.920281,42.4779135 197.197704,42.4694773 194.663265,42.4013382 C193.159439,42.3416353 191.453444,42.0950367 190.425383,40.8529583 C189.606505,39.8574785 189.647321,38.4856113 189.674745,37.265597 C189.618622,35.8775063 190.320153,34.4777345 191.487245,33.7457259 C192.570153,33.0876969 193.813138,32.7794486 195.04273,32.5678929 C198.452806,32.0526316 201.903061,32.0318654 205.33801,32.0441953 C205.373087,33.8015351 205.441964,35.603652 204.915179,37.2980442 L204.915179,37.2980442 Z M214.914541,41.9678437 C214.156888,41.4895721 213.139031,42.0093761 212.422832,41.421433 C212.002551,40.7536699 212.093112,39.9236708 212.076531,39.170247 C212.126913,38.4856113 212.03125,37.8068161 212.026786,37.1247762 C212.03125,33.1746554 212.03125,29.2212898 212.026786,25.2705201 C211.977679,23.2672306 211.684949,21.2451217 210.972577,19.3677274 C210.252551,17.478003 208.769133,15.8887397 206.913903,15.1314223 C205.089286,14.3358172 203.094388,14.0814313 201.127551,13.9905791 C200.534439,13.9367168 199.941964,13.9321742 199.347577,13.9483978 C199.290816,13.9451531 199.23852,13.9302274 199.178571,13.9302274 L192.206633,13.9302274 C190.368622,13.9302274 188.877551,15.4571921 188.877551,17.3417248 C188.877551,19.2249597 190.368622,20.7525734 192.206633,20.7525734 L199.178571,20.7525734 C199.188138,20.7525734 199.195153,20.7493287 199.204082,20.7493287 C199.204082,20.7493287 199.204082,20.7493287 199.204082,20.7512755 C199.649872,20.7447861 200.094388,20.7525734 200.54273,20.7934569 C201.856505,20.8602981 203.283163,21.1075456 204.233418,22.1231427 C205.126276,23.1192714 205.300383,24.5313731 205.360969,25.825367 C200.592474,25.8474311 195.757015,25.8779314 191.110969,27.1102757 C188.875638,27.7345596 186.610332,28.7521035 185.131378,30.6437746 C183.543367,32.6074785 183.091199,35.2357009 182.991709,37.7075277 C182.903699,40.5129117 183.412628,43.5785222 185.399235,45.6694191 C187.517857,47.8362424 190.625,48.4897288 193.514031,48.6792204 C196.6875,48.8025197 199.926658,48.6227623 202.962372,47.6013247 C204.342474,47.1288937 205.587372,46.2988946 206.63074,45.2761591 C207.100765,46.1567759 207.66199,47.0633503 208.589923,47.5072279 C210.358418,48.3476101 212.364158,48.2398854 214.266582,48.1302139 C214.648597,48.1243734 215.157526,47.9511054 215.159439,47.4812701 C215.194515,45.9270498 215.163265,44.3702336 215.176658,42.8179601 C215.163903,42.5194459 215.194515,42.148899 214.914541,41.9678437 L214.914541,41.9678437 Z" id="Fill-3" fill="#FFFFFF" sketch:type="MSShapeGroup" mask="url(#mask-2)"></path>
                        <path d="M183.227679,13.8387263 L173.272959,13.8387263 C173.27551,9.60696384 173.273597,5.3752014 173.27551,1.14343895 C173.299107,0.745636412 173.123724,0.260875403 172.675383,0.231672932 C170.850765,0.197278912 169.026786,0.225832438 167.203444,0.218045113 C166.759566,0.153150734 166.338648,0.554197995 166.403061,1.01040548 C166.397321,14.4117436 166.396684,27.8176244 166.403061,41.2209094 C166.522959,42.4941371 166.852041,43.7686627 167.489796,44.8777077 C168.278699,46.2398407 169.658163,47.1567982 171.13074,47.5928885 C172.609056,48.0263829 174.157526,48.2230129 175.69324,48.1912146 C177.311224,48.1912146 178.93176,48.2067893 180.554209,48.1704484 C180.986607,48.1918636 181.472577,47.8563596 181.410714,47.3683539 C181.416454,45.762218 181.429209,44.1508906 181.407526,42.5447547 C181.441327,42.0827068 180.973852,41.8185866 180.575255,41.8309166 C178.798469,41.7971715 177.010204,41.9029493 175.24426,41.6673827 C174.334821,41.5246151 173.354592,40.8996822 173.279337,39.8834363 C173.266582,33.7827157 173.279337,27.6813462 173.273597,21.5812746 L173.27551,21.5812746 L173.27551,20.6117526 L183.227679,20.6117526 C185.065051,20.6117526 186.554847,19.095171 186.554847,17.2255639 C186.554847,15.3559569 185.065051,13.8387263 183.227679,13.8387263" id="Fill-4" fill="#FFFFFF" sketch:type="MSShapeGroup" mask="url(#mask-2)"></path>
                        <path d="M14.276148,14.1333468 C15.4107143,14.1171232 16.5446429,14.084676 17.6798469,14.1288042 C21.1179847,14.3325725 24.5880102,15.4974266 27.2040816,17.8342732 C27.682398,18.2950233 28.2021684,18.7499329 28.5012755,19.3579932 C28.6677296,19.7278912 28.3934949,20.0835124 28.1428571,20.3249194 C26.8609694,21.5085929 25.6811224,22.8090763 24.338648,23.9220149 C23.9993622,24.1945712 23.5133929,24.0836019 23.2519133,23.7597789 C21.5892857,22.0725251 19.3144133,20.9680227 16.9508929,20.9128625 C15.6498724,20.9096178 14.3239796,20.8525107 13.0554847,21.1977488 C11.5669643,21.5793278 10.0688776,22.2399526 9.05165816,23.4521796 C7.96556122,24.7552587 7.39604592,26.4262889 7.15816327,28.099266 C6.87755102,30.1960034 6.83354592,32.3290816 7.07653061,34.4290637 C7.24298469,36.2577873 7.73022959,38.1222028 8.83673469,39.6011457 C9.84183673,40.890597 11.3360969,41.7147556 12.8966837,42.0716747 C15.3048469,42.5389142 17.8915816,42.64599 20.2002551,41.6797127 C21.4770408,41.1761323 22.557398,40.2974624 23.6071429,39.4265798 C23.8858418,39.1631087 24.3258929,39.0560329 24.6332908,39.331834 C25.7748724,40.3201754 26.8290816,41.4065073 27.8998724,42.4714241 C28.1517857,42.7310016 28.4521684,42.9853876 28.5274235,43.3624239 C28.5235969,43.638874 28.377551,43.903643 28.1753827,44.0846984 C26.565051,45.5383324 24.8029337,46.871263 22.7774235,47.6532402 C20.6052296,48.4962182 18.2653061,48.8674141 15.9451531,48.810307 C12.3265306,48.8382116 8.53826531,48.1847252 5.50063776,46.0691685 C3.76785714,44.838771 2.45344388,43.061314 1.60204082,41.1040995 C0.323341837,38.0332975 -0.00382653061,34.6529493 0.0012755102,31.3465807 C0.0172193878,27.9136681 0.389030612,24.3853607 1.87563776,21.2593985 C3.10905612,18.59808 5.40561224,16.4909595 8.10395408,15.4481069 C10.0644133,14.638874 12.1741071,14.2774123 14.276148,14.1333468" id="Fill-5" fill="#FFFFFF" sketch:type="MSShapeGroup" mask="url(#mask-2)"></path>
                    </g>
                    <path d="M80.1135204,15.2326575 C80.1307398,14.7602265 80.6294643,14.5668412 81.028699,14.59215 C82.6658163,14.5979905 84.3022959,14.5791711 85.9394133,14.6018842 C86.3820153,14.6258951 87.005102,14.6083736 87.1447704,15.1554332 C89.6205357,22.5475519 92.1243622,29.9273407 94.5784439,37.3252999 C96.9234694,30.1869182 99.1658163,23.0089509 101.491071,15.862133 C101.65625,15.3909998 101.73852,14.6862469 102.348214,14.6161609 C103.637755,14.5564581 104.938776,14.6103204 106.231505,14.59215 C106.878827,14.6070757 107.549107,14.5324472 108.177934,14.731024 C108.622449,14.9841121 108.641582,15.5590763 108.809311,15.9951665 C111.073342,23.0796858 113.366071,30.1551199 115.639668,37.2363946 C115.850765,36.8074427 115.989796,36.3473416 116.144133,35.8950277 C118.459184,29.011681 120.776786,22.1296321 123.13074,15.2599132 C123.218112,14.8828768 123.538903,14.5960437 123.931122,14.6018842 C125.66199,14.5798201 127.397321,14.5960437 129.128827,14.592799 C129.573342,14.5597028 130.128189,14.857568 130.078444,15.3767231 C129.964286,16.0522735 129.691964,16.6921321 129.492985,17.3462675 C127.672194,22.5520945 125.961735,27.7981561 124.09949,32.9903554 C123.230867,35.5543323 122.35523,38.1150644 121.475128,40.6751477 C120.833546,42.3734336 120.394133,44.1444012 119.739796,45.8381445 C118.779974,48.0562343 115.927934,49.167875 113.767219,48.128916 C112.571429,47.5494092 111.935587,46.2865646 111.379464,45.1327426 C110.671556,43.4364035 110.197704,41.6511591 109.618622,39.9048514 C108.102679,35.3018931 106.658163,30.6710303 105.054209,26.0985723 C102.927934,32.3225922 100.961735,38.605666 98.9068878,44.8543457 C98.6020408,45.8790279 98.0950255,46.8758056 97.2232143,47.5156642 C95.9394133,48.545538 94.0956633,48.8297753 92.591199,48.1477354 C91.6422194,47.6889322 91.0197704,46.7745704 90.5401786,45.855666 C89.8373724,44.6109918 89.4866071,43.2079753 89.0121173,41.8666085 C86.1422194,33.5270319 83.3443878,25.1608485 80.4789541,16.8219209 C80.3125,16.3066595 80.0924745,15.781015 80.1135204,15.2326575" id="Fill-7" fill="#FFFFFF" sketch:type="MSShapeGroup"></path>
                    <g id="Group-11" fill="#FFFFFF" sketch:type="MSShapeGroup">
                        <path d="M73.5739796,35.7392812 C73.1651786,37.7879968 72.1403061,39.8419039 70.3246173,40.9405657 C68.1109694,42.2657089 65.4164541,42.4019871 62.9190051,42.1417607 C60.8201531,41.9561627 58.6670918,41.0768439 57.3903061,39.3045784 C55.8985969,37.2305541 55.5829082,34.5731293 55.5159439,32.0759936 C55.5076531,29.2783969 55.6600765,26.2517231 57.3035714,23.8850251 C58.3730867,22.3048469 60.1772959,21.4670605 61.9642857,21.0582259 C62.7461735,20.8933942 63.5478316,20.8933942 64.3418367,20.8856069 C65.4897959,20.8882026 66.6543367,20.8408298 67.778699,21.115333 C69.09375,21.4683584 70.408801,22.0134712 71.40625,22.9823443 C72.7174745,24.2640082 73.3871173,26.0713167 73.6766582,27.8617526 C74.0688776,30.4685598 74.0471939,33.144804 73.5739796,35.7392812 L73.5739796,35.7392812 Z M80.1256378,24.0719209 C79.5440051,21.7143081 78.3966837,19.475452 76.6619898,17.7856024 C75.0975765,16.173626 73.0210459,15.1833378 70.8954082,14.5947458 C67.8979592,13.7770766 64.7487245,13.7387889 61.6741071,14.0081006 C59.6230867,14.2598908 57.5695153,14.7446518 55.7149235,15.6921097 C53.6352041,16.7206856 51.9253827,18.4390888 50.7914541,20.4787191 C49.7729592,22.2892723 49.2436224,24.3379878 48.8941327,26.3782671 C48.4247449,29.6080603 48.4119898,32.9040458 48.8622449,36.1338391 C49.2531888,38.6913265 49.994898,41.2637397 51.505102,43.3818922 C53.0274235,45.5805138 55.348852,47.1353831 57.8635204,47.9108709 C61.1128827,48.9329574 64.5752551,49.0705335 67.9394133,48.7045292 C70.6147959,48.3566953 73.3252551,47.6013247 75.5184949,45.9458691 C77.6345663,44.3280523 79.2008929,41.9769289 79.8871173,39.3727175 C80.3705357,37.6140798 80.7614796,35.8171545 80.8533163,33.9890798 C81.1007653,30.6749239 80.9623724,27.2965226 80.1256378,24.0719209 L80.1256378,24.0719209 Z" id="Fill-8"></path>
                        <path d="M154.041454,33.1980174 C153.932398,35.3551065 153.592474,37.6296545 152.316327,39.4213883 C151.390306,40.7763829 149.855867,41.5395408 148.31824,41.9237155 C146.586097,42.311135 144.79273,42.3442311 143.026786,42.2118466 C141.117985,42.0255997 139.146046,41.2228562 138.012755,39.5790816 C136.758291,37.7918904 136.38074,35.5510875 136.262755,33.4043815 C136.126276,31.3576128 136.179847,29.2894289 136.509566,27.2640754 C136.777423,25.628737 137.396684,23.9862603 138.573342,22.8012889 C139.526786,21.8298201 140.828444,21.3054735 142.139031,21.0556301 C144.489796,20.7415414 146.931122,20.7395945 149.223852,21.4131982 C150.753189,21.8389053 152.117347,22.8772154 152.867347,24.3113811 C153.848214,26.2017544 154.029337,28.3783119 154.08801,30.4782939 C154.180485,31.3855174 154.080995,32.2933897 154.041454,33.1980174 L154.041454,33.1980174 Z M164.420281,42.7563104 C164.436224,42.4519558 164.280612,42.1287818 163.980867,42.0405254 C163.197066,41.8062567 162.314413,42.0593448 161.570791,41.6667338 C161.156888,41.2896975 161.059949,40.6751477 161.03125,40.1391201 C161.035714,27.1031373 161.035714,14.0665055 161.03125,1.03052274 C161.091199,0.571070533 160.66773,0.171970104 160.222577,0.237513426 C158.397321,0.246598639 156.569515,0.216747225 154.741709,0.253088077 C154.29273,0.282939492 154.128189,0.766402614 154.146684,1.16031149 C154.146684,6.37781955 154.137117,11.5972744 154.149872,16.8154314 C153.01977,15.8381221 151.633929,15.2138382 150.200255,14.8744406 C147.781888,14.245614 145.268495,14.2047306 142.783801,14.2300394 C140.491709,14.2774123 138.178571,14.7225877 136.106505,15.7446742 C133.762755,16.9023899 131.908801,18.9861484 130.897959,21.4177408 C129.829082,23.9453768 129.334184,26.7059837 129.291454,29.450367 C129.129464,33.0876969 129.265944,36.8126343 130.415179,40.2948666 C131.131378,42.483754 132.34949,44.5571294 134.142219,46.0107635 C135.88074,47.4695892 138.077806,48.2463749 140.283801,48.5870704 C141.82398,48.8719567 143.397321,48.8057644 144.954719,48.8064134 C146.916454,48.7343806 148.884566,48.5169844 150.774235,47.9718716 C152.452806,47.5429198 154.006378,46.6467284 155.234056,45.4117884 C155.723214,46.2268618 156.234056,47.1081275 157.108418,47.5448666 C158.413903,48.2191192 159.914541,48.4073129 161.365434,48.3755147 C162.208546,48.3794083 163.061862,48.3748657 163.901786,48.2613006 C164.255102,48.1977041 164.451531,47.8089868 164.424107,47.4695892 C164.424107,45.8971984 164.42602,44.3280523 164.420281,42.7563104 L164.420281,42.7563104 Z" id="Fill-10"></path>
                    </g>
                    <path d="M41.7244898,15.3514142 C43.5235969,14.8361529 45.3922194,14.4993511 47.2659439,14.5441282 C47.75,14.5246599 48.0089286,15.0301871 48.0031888,15.4656284 C48.0267857,17.1262755 47.9929847,18.7875716 48.0133929,20.4482188 C48.0395408,20.8602981 47.8998724,21.3749105 47.4445153,21.46122 C46.3979592,21.6701799 45.3169643,21.6299454 44.2716837,21.8473416 C42.7512755,22.1847923 41.2130102,22.7928527 40.1294643,23.9745793 C39.091199,25.0583154 38.5070153,26.5151942 38.2557398,27.9882966 C37.9719388,29.5386233 38.0580357,31.1213972 38.0459184,32.6911923 C38.0459184,37.5063552 38.0440051,42.3234649 38.0478316,47.1399257 C38.0529337,47.4734828 38.0114796,47.864147 37.7123724,48.0653195 C37.3029337,48.2866094 36.8169643,48.1977041 36.3711735,48.2340449 C34.8609694,48.2165235 33.3482143,48.2742794 31.8399235,48.1918636 C31.3756378,48.1847252 31.088648,47.7032089 31.1230867,47.2684166 C31.1211735,36.9132206 31.1243622,26.5580245 31.1211735,16.2021796 C31.067602,15.7492168 31.3692602,15.2449875 31.8494898,15.2404449 C33.1568878,15.054198 34.4821429,15.0139635 35.8016582,15.0003357 C36.1696429,14.98541 36.658801,15.0347297 36.8048469,15.446809 C37.0216837,16.2112648 37.0471939,17.016604 37.1734694,17.801177 C38.4489796,16.5967374 40.0656888,15.8381221 41.7244898,15.3514142" id="Fill-12" fill="#FFFFFF" sketch:type="MSShapeGroup"></path>
                </g>
            </g>
        </g>
    </g>
</svg>