<?xml version="1.0" encoding="UTF-8" standalone="no"?>
<svg width="16px" height="17px" viewBox="0 0 16 17" version="1.1" xmlns="http://www.w3.org/2000/svg" xmlns:xlink="http://www.w3.org/1999/xlink" xmlns:sketch="http://www.bohemiancoding.com/sketch/ns">
    <!-- Generator: Sketch 3.5.2 (25235) - http://www.bohemiancoding.com/sketch -->
    <title>linkedin-icon</title>
    <desc>Created with Sketch.</desc>
    <defs></defs>
    <g id="Page-1" stroke="none" stroke-width="1" fill="none" fill-rule="evenodd" sketch:type="MSPage">
        <path d="M2.38058036,13.7745536 L4.70089286,13.7745536 L4.70089286,6.80357143 L2.38058036,6.80357143 L2.38058036,13.7745536 Z M4.8515625,4.65401786 C4.84486604,4.30580183 4.72433153,4.01785828 4.48995536,3.79017857 C4.25557919,3.56249886 3.94419837,3.44866071 3.55580357,3.44866071 C3.16740877,3.44866071 2.85100569,3.56249886 2.60658482,3.79017857 C2.36216396,4.01785828 2.23995536,4.30580183 2.23995536,4.65401786 C2.23995536,4.99553742 2.35881578,5.28180688 2.59654018,5.51283482 C2.83426458,5.74386276 3.14397131,5.859375 3.52566964,5.859375 L3.53571429,5.859375 C3.93080555,5.859375 4.24888272,5.74386276 4.48995536,5.51283482 C4.73102799,5.28180688 4.8515625,4.99553742 4.8515625,4.65401786 L4.8515625,4.65401786 Z M10.7276786,13.7745536 L13.0479911,13.7745536 L13.0479911,9.77678571 C13.0479911,8.74553056 12.8035739,7.96540443 12.3147321,7.43638393 C11.8258904,6.90736343 11.1796915,6.64285714 10.3761161,6.64285714 C9.46539723,6.64285714 8.76562744,7.0345943 8.27678571,7.81808036 L8.296875,7.81808036 L8.296875,6.80357143 L5.9765625,6.80357143 C5.99665189,7.24553792 5.99665189,9.5691754 5.9765625,13.7745536 L8.296875,13.7745536 L8.296875,9.87723214 C8.296875,9.62276658 8.32031227,9.43526846 8.3671875,9.31473214 C8.46763443,9.08035597 8.61830257,8.88113921 8.81919643,8.71707589 C9.02009029,8.55301257 9.26785567,8.47098214 9.5625,8.47098214 C10.3392896,8.47098214 10.7276786,8.99664653 10.7276786,10.0479911 L10.7276786,13.7745536 Z M15.4285714,3.75 L15.4285714,13.3928571 C15.4285714,14.1897361 15.1456502,14.8710909 14.5797991,15.436942 C14.0139481,16.002793 13.3325933,16.2857143 12.5357143,16.2857143 L2.89285714,16.2857143 C2.09597816,16.2857143 1.41462336,16.002793 0.848772321,15.436942 C0.282921278,14.8710909 0,14.1897361 0,13.3928571 L0,3.75 C0,2.95312102 0.282921278,2.27176622 0.848772321,1.70591518 C1.41462336,1.14006414 2.09597816,0.857142857 2.89285714,0.857142857 L12.5357143,0.857142857 C13.3325933,0.857142857 14.0139481,1.14006414 14.5797991,1.70591518 C15.1456502,2.27176622 15.4285714,2.95312102 15.4285714,3.75 L15.4285714,3.75 Z" id="linkedin-icon" fill="#515151" sketch:type="MSShapeGroup"></path>
    </g>
</svg>