<?xml version="1.0" encoding="UTF-8" standalone="no"?>
<svg width="16px" height="17px" viewBox="0 0 16 17" version="1.1" xmlns="http://www.w3.org/2000/svg" xmlns:xlink="http://www.w3.org/1999/xlink" xmlns:sketch="http://www.bohemiancoding.com/sketch/ns">
    <!-- Generator: Sketch 3.5.2 (25235) - http://www.bohemiancoding.com/sketch -->
    <title>email-icon</title>
    <desc>Created with Sketch.</desc>
    <defs></defs>
    <g id="Page-1" stroke="none" stroke-width="1" fill="none" fill-rule="evenodd" sketch:type="MSPage">
        <path d="M12.5357143,0.857142857 C13.3325933,0.857142857 14.0139481,1.14006414 14.5797991,1.70591518 C15.1456502,2.27176622 15.4285714,2.95312102 15.4285714,3.75 L15.4285714,13.3928571 C15.4285714,14.1897361 15.1456502,14.8710909 14.5797991,15.436942 C14.0139481,16.002793 13.3325933,16.2857143 12.5357143,16.2857143 L2.89285714,16.2857143 C2.09597816,16.2857143 1.41462336,16.002793 0.848772321,15.436942 C0.282921278,14.8710909 0,14.1897361 0,13.3928571 L0,3.75 C0,2.95312102 0.282921278,2.27176622 0.848772321,1.70591518 C1.41462336,1.14006414 2.09597816,0.857142857 2.89285714,0.857142857 L12.5357143,0.857142857 Z M12.8571429,11.4642857 L12.8571429,7.08482143 C12.6495525,7.3191976 12.435269,7.50334754 12.2142857,7.63727679 C11.986606,7.78459895 11.542972,8.06919432 10.8833705,8.49107143 C10.223769,8.91294854 9.71651963,9.24441844 9.36160714,9.48549107 C8.70535386,9.94754695 8.15625221,10.1785714 7.71428571,10.1785714 L7.71428571,10.1785714 C7.27231922,10.1785714 6.72321757,9.94754695 6.06696429,9.48549107 C5.75892703,9.27120429 5.28515945,8.96149756 4.64564732,8.55636161 C4.0061352,8.15122565 3.52901943,7.84151893 3.21428571,7.62723214 C3.13392817,7.57366045 3.0234382,7.48325956 2.8828125,7.35602679 C2.7421868,7.22879401 2.63839319,7.13839313 2.57142857,7.08482143 L2.57142857,11.4642857 C2.57142857,11.7321442 2.66517763,11.9598205 2.85267857,12.1473214 C3.04017951,12.3348224 3.2678558,12.4285714 3.53571429,12.4285714 L11.8928571,12.4285714 C12.1607156,12.4285714 12.3883919,12.3348224 12.5758929,12.1473214 C12.7633938,11.9598205 12.8571429,11.7321442 12.8571429,11.4642857 L12.8571429,11.4642857 Z M12.8571429,5.70870536 C12.8571429,5.43415041 12.7650679,5.19977776 12.5809152,5.00558036 C12.3967625,4.81138296 12.1674121,4.71428571 11.8928571,4.71428571 L3.53571429,4.71428571 C3.2678558,4.71428571 3.04017951,4.80803478 2.85267857,4.99553571 C2.66517763,5.18303665 2.57142857,5.41071295 2.57142857,5.67857143 C2.57142857,5.92634052 2.67354809,6.18247636 2.87779018,6.44698661 C3.08203227,6.71149686 3.30803448,6.92745452 3.55580357,7.09486607 C3.87053729,7.30915286 4.33091215,7.60714095 4.93694196,7.98883929 C5.54297178,8.37053762 5.97656119,8.64843663 6.23772321,8.82254464 C6.2578126,8.83593757 6.31473167,8.87444165 6.40848214,8.93805804 C6.50223261,9.00167443 6.57254441,9.04854896 6.61941964,9.07868304 C6.66629488,9.10881711 6.73660667,9.15234347 6.83035714,9.20926339 C6.92410761,9.26618332 7.00278986,9.30970967 7.06640625,9.33984375 C7.13002264,9.36997783 7.20200853,9.40178555 7.28236607,9.43526786 C7.36272362,9.46875017 7.43805768,9.49386152 7.50837054,9.51060268 C7.57868339,9.52734383 7.64732109,9.53571429 7.71428571,9.53571429 C7.78125033,9.53571429 7.84988804,9.52734383 7.92020089,9.51060268 C7.99051374,9.49386152 8.06584781,9.46875017 8.14620536,9.43526786 C8.2265629,9.40178555 8.29854879,9.36997783 8.36216518,9.33984375 C8.42578157,9.30970967 8.50446382,9.26618332 8.59821429,9.20926339 C8.69196475,9.15234347 8.76227655,9.10881711 8.80915179,9.07868304 C8.85602702,9.04854896 8.92633882,9.00167443 9.02008929,8.93805804 C9.11383975,8.87444165 9.17075883,8.83593757 9.19084821,8.82254464 L11.8727679,7.07477679 C12.107144,6.92075816 12.3297981,6.71149686 12.5407366,6.44698661 C12.7516752,6.18247636 12.8571429,5.93638507 12.8571429,5.70870536 L12.8571429,5.70870536 Z" id="email-icon" fill="#515151" sketch:type="MSShapeGroup"></path>
    </g>
</svg>