<?xml version="1.0" encoding="UTF-8" standalone="no"?>
<svg width="16px" height="17px" viewBox="0 0 16 17" version="1.1" xmlns="http://www.w3.org/2000/svg" xmlns:xlink="http://www.w3.org/1999/xlink" xmlns:sketch="http://www.bohemiancoding.com/sketch/ns">
    <!-- Generator: Sketch 3.5.2 (25235) - http://www.bohemiancoding.com/sketch -->
    <title>twitter-icon</title>
    <desc>Created with Sketch.</desc>
    <defs></defs>
    <g id="Page-1" stroke="none" stroke-width="1" fill="none" fill-rule="evenodd" sketch:type="MSPage">
        <path d="M12.8571429,5.69866071 C12.482141,5.86607227 12.0770111,5.97991041 11.6417411,6.04017857 C12.0971005,5.77232009 12.4084813,5.38058294 12.5758929,4.86495536 C12.1406228,5.11942092 11.6919666,5.29017814 11.2299107,5.37723214 C10.8214265,4.93526565 10.3091549,4.71428571 9.69308036,4.71428571 C9.11048816,4.71428571 8.61328331,4.92019883 8.20145089,5.33203125 C7.78961848,5.74386367 7.58370536,6.24106852 7.58370536,6.82366071 C7.58370536,7.01785811 7.60044626,7.17857079 7.63392857,7.30580357 C6.77008497,7.25892834 5.95982521,7.04129658 5.203125,6.65290179 C4.44642479,6.26450699 3.80357407,5.74553896 3.27455357,5.09598214 C3.08035617,5.43080525 2.98325893,5.78571241 2.98325893,6.16071429 C2.98325893,6.92411096 3.28794338,7.5100426 3.89732143,7.91852679 C3.58258771,7.91183032 3.24776963,7.82477762 2.89285714,7.65736607 L2.89285714,7.67745536 C2.89285714,8.17969001 3.06026618,8.62667215 3.39508929,9.01841518 C3.72991239,9.41015821 4.14173863,9.65290132 4.63058036,9.74665179 C4.43638296,9.80022348 4.26562574,9.82700893 4.11830357,9.82700893 C4.03124956,9.82700893 3.90067051,9.81361621 3.7265625,9.78683036 C3.8671882,10.2087075 4.11662767,10.5569183 4.47488839,10.8314732 C4.83314911,11.1060282 5.23995308,11.2466518 5.6953125,11.2533482 C4.9185229,11.8560298 4.04464771,12.1573661 3.07366071,12.1573661 C2.8995527,12.1573661 2.73214366,12.1473215 2.57142857,12.1272321 C3.56250496,12.7566996 4.64061917,13.0714286 5.80580357,13.0714286 C6.55580732,13.0714286 7.25892529,12.9525682 7.91517857,12.7148438 C8.57143185,12.4771193 9.13392623,12.1590422 9.60267857,11.7606027 C10.0714309,11.3621632 10.4748867,10.9034624 10.813058,10.3844866 C11.1512294,9.8655108 11.4023429,9.32310551 11.5664062,8.75725446 C11.7304696,8.19140342 11.8125,7.62723496 11.8125,7.06473214 C11.8125,6.94419583 11.8091518,6.85379494 11.8024554,6.79352679 C12.2243325,6.49218599 12.5758915,6.12723429 12.8571429,5.69866071 L12.8571429,5.69866071 Z M15.4285714,3.75 L15.4285714,13.3928571 C15.4285714,14.1897361 15.1456502,14.8710909 14.5797991,15.436942 C14.0139481,16.002793 13.3325933,16.2857143 12.5357143,16.2857143 L2.89285714,16.2857143 C2.09597816,16.2857143 1.41462336,16.002793 0.848772321,15.436942 C0.282921278,14.8710909 0,14.1897361 0,13.3928571 L0,3.75 C0,2.95312102 0.282921278,2.27176622 0.848772321,1.70591518 C1.41462336,1.14006414 2.09597816,0.857142857 2.89285714,0.857142857 L12.5357143,0.857142857 C13.3325933,0.857142857 14.0139481,1.14006414 14.5797991,1.70591518 C15.1456502,2.27176622 15.4285714,2.95312102 15.4285714,3.75 L15.4285714,3.75 Z" id="twitter-icon" fill="#515151" sketch:type="MSShapeGroup"></path>
    </g>
</svg>