<?xml version="1.0" encoding="UTF-8" standalone="no"?>
<svg width="31px" height="31px" viewBox="0 0 31 31" version="1.1" xmlns="http://www.w3.org/2000/svg" xmlns:xlink="http://www.w3.org/1999/xlink" xmlns:sketch="http://www.bohemiancoding.com/sketch/ns">
    <!-- Generator: Sketch 3.5.1 (25234) - http://www.bohemiancoding.com/sketch -->
    <title>blog</title>
    <desc>Created with Sketch.</desc>
    <defs></defs>
    <g id="Page-1" stroke="none" stroke-width="1" fill="none" fill-rule="evenodd" sketch:type="MSPage">
        <g id="blog" sketch:type="MSArtboardGroup" fill="#515151">
            <path d="M10.2857143,23.1428571 C10.2857143,22.4330322 10.0346007,21.8270114 9.53236607,21.3247768 C9.03013142,20.8225421 8.42411069,20.5714286 7.71428571,20.5714286 C7.00446074,20.5714286 6.39844001,20.8225421 5.89620536,21.3247768 C5.3939707,21.8270114 5.14285714,22.4330322 5.14285714,23.1428571 C5.14285714,23.8526821 5.3939707,24.4587028 5.89620536,24.9609375 C6.39844001,25.4631722 7.00446074,25.7142857 7.71428571,25.7142857 C8.42411069,25.7142857 9.03013142,25.4631722 9.53236607,24.9609375 C10.0346007,24.4587028 10.2857143,23.8526821 10.2857143,23.1428571 L10.2857143,23.1428571 Z M17.3370536,25.03125 C17.1629456,21.9240916 15.9776896,19.2723324 13.78125,17.0758929 C11.5848104,14.8794533 8.93305125,13.6941973 5.82589286,13.5200893 C5.63839192,13.5066964 5.47767924,13.5669636 5.34375,13.7008929 C5.20982076,13.8348221 5.14285714,13.9888384 5.14285714,14.1629464 L5.14285714,16.734375 C5.14285714,16.908483 5.19977622,17.055803 5.31361607,17.1763393 C5.42745593,17.2968756 5.5714277,17.3638392 5.74553571,17.3772321 C7.80804603,17.5245543 9.57588549,18.3348141 11.0491071,19.8080357 C12.5223288,21.2812574 13.3325885,23.0490968 13.4799107,25.1116071 C13.4933036,25.2857152 13.5602673,25.4296869 13.6808036,25.5435268 C13.8013399,25.6573666 13.9486598,25.7142857 14.1227679,25.7142857 L16.6941964,25.7142857 C16.8683044,25.7142857 17.0223208,25.6473221 17.15625,25.5133929 C17.2901792,25.3794636 17.3504465,25.2187509 17.3370536,25.03125 L17.3370536,25.03125 Z M25.0513393,25.0513393 C24.9843747,22.988829 24.6093784,20.9966614 23.9263393,19.0747768 C23.2433002,17.1528922 22.3091577,15.4118382 21.1238839,13.8515625 C19.9386101,12.2912868 18.565856,10.9185327 17.0055804,9.73325893 C15.4453047,8.54798515 13.7042507,7.6138427 11.7823661,6.93080357 C9.86048146,6.24776444 7.86831388,5.87276819 5.80580357,5.80580357 C5.61830263,5.79241065 5.46428632,5.8526779 5.34375,5.98660714 C5.20982076,6.12053638 5.14285714,6.2745527 5.14285714,6.44866071 L5.14285714,9.02008929 C5.14285714,9.1941973 5.2031244,9.34151725 5.32366071,9.46205357 C5.44419703,9.58258989 5.59151699,9.6495535 5.765625,9.66294643 C8.49778152,9.7566969 11.0290062,10.5033412 13.359375,11.9029018 C15.6897438,13.3024624 17.5546805,15.1673991 18.9542411,17.4977679 C20.3538016,19.8281367 21.100446,22.3593613 21.1941964,25.0915179 C21.2075894,25.2656259 21.274553,25.4129458 21.3950893,25.5334821 C21.5156256,25.6540185 21.6629456,25.7142857 21.8370536,25.7142857 L24.4084821,25.7142857 C24.5825902,25.7142857 24.7366065,25.6473221 24.8705357,25.5133929 C25.0178579,25.3928565 25.0781251,25.2388402 25.0513393,25.0513393 L25.0513393,25.0513393 Z M30.8571429,5.78571429 L30.8571429,25.0714286 C30.8571429,26.6651865 30.2913003,28.0278961 29.1595982,29.1595982 C28.0278961,30.2913003 26.6651865,30.8571429 25.0714286,30.8571429 L5.78571429,30.8571429 C4.19195632,30.8571429 2.82924673,30.2913003 1.69754464,29.1595982 C0.565842556,28.0278961 0,26.6651865 0,25.0714286 L0,5.78571429 C0,4.19195632 0.565842556,2.82924673 1.69754464,1.69754464 C2.82924673,0.565842556 4.19195632,0 5.78571429,0 L25.0714286,0 C26.6651865,0 28.0278961,0.565842556 29.1595982,1.69754464 C30.2913003,2.82924673 30.8571429,4.19195632 30.8571429,5.78571429 L30.8571429,5.78571429 Z" id="twitter-icon" sketch:type="MSShapeGroup"></path>
        </g>
    </g>
</svg>