<?xml version="1.0" encoding="UTF-8"?>
<svg width="16px" height="16px" viewBox="0 0 16 16" version="1.1" xmlns="http://www.w3.org/2000/svg" xmlns:xlink="http://www.w3.org/1999/xlink">
    <!-- Generator: Sketch 48.2 (47327) - http://www.bohemiancoding.com/sketch -->
    <title>footer-twitter-icon_light</title>
    <desc>Created with Sketch.</desc>
    <defs></defs>
    <g id="Page-1" stroke="none" stroke-width="1" fill="none" fill-rule="evenodd">
        <path d="M12.8571429,4.84151786 C12.482141,5.00892941 12.0770111,5.12276756 11.6417411,5.18303571 C12.0971005,4.91517723 12.4084813,4.52344008 12.5758929,4.0078125 C12.1406228,4.26227806 11.6919666,4.43303528 11.2299107,4.52008929 C10.8214265,4.07812279 10.3091549,3.85714286 9.69308036,3.85714286 C9.11048816,3.85714286 8.61328331,4.06305598 8.20145089,4.47488839 C7.78961848,4.88672081 7.58370536,5.38392566 7.58370536,5.96651786 C7.58370536,6.16071526 7.60044626,6.32142794 7.63392857,6.44866071 C6.77008497,6.40178548 5.95982521,6.18415373 5.203125,5.79575893 C4.44642479,5.40736413 3.80357407,4.8883961 3.27455357,4.23883929 C3.08035617,4.57366239 2.98325893,4.92856955 2.98325893,5.30357143 C2.98325893,6.0669681 3.28794338,6.65289974 3.89732143,7.06138393 C3.58258771,7.05468747 3.24776963,6.96763477 2.89285714,6.80022321 L2.89285714,6.8203125 C2.89285714,7.32254715 3.06026618,7.76952929 3.39508929,8.16127232 C3.72991239,8.55301535 4.14173863,8.79575846 4.63058036,8.88950893 C4.43638296,8.94308062 4.26562574,8.96986607 4.11830357,8.96986607 C4.03124956,8.96986607 3.90067051,8.95647335 3.7265625,8.9296875 C3.8671882,9.35156461 4.11662767,9.69977541 4.47488839,9.97433036 C4.83314911,10.2488853 5.23995308,10.3895089 5.6953125,10.3962054 C4.9185229,10.9988869 4.04464771,11.3002232 3.07366071,11.3002232 C2.8995527,11.3002232 2.73214366,11.2901787 2.57142857,11.2700893 C3.56250496,11.8995567 4.64061917,12.2142857 5.80580357,12.2142857 C6.55580732,12.2142857 7.25892529,12.0954253 7.91517857,11.8577009 C8.57143185,11.6199765 9.13392623,11.3018993 9.60267857,10.9034598 C10.0714309,10.5050203 10.4748867,10.0463196 10.813058,9.52734375 C11.1512294,9.00836794 11.4023429,8.46596265 11.5664063,7.90011161 C11.7304696,7.33426056 11.8125,6.7700921 11.8125,6.20758929 C11.8125,6.08705297 11.8091518,5.99665209 11.8024554,5.93638393 C12.2243325,5.63504314 12.5758915,5.27009143 12.8571429,4.84151786 L12.8571429,4.84151786 Z M15.4285714,2.89285714 L15.4285714,12.5357143 C15.4285714,13.3325933 15.1456502,14.0139481 14.5797991,14.5797991 C14.0139481,15.1456502 13.3325933,15.4285714 12.5357143,15.4285714 L2.89285714,15.4285714 C2.09597816,15.4285714 1.41462336,15.1456502 0.848772321,14.5797991 C0.282921278,14.0139481 0,13.3325933 0,12.5357143 L0,2.89285714 C0,2.09597816 0.282921278,1.41462336 0.848772321,0.848772321 C1.41462336,0.282921278 2.09597816,0 2.89285714,0 L12.5357143,0 C13.3325933,0 14.0139481,0.282921278 14.5797991,0.848772321 C15.1456502,1.41462336 15.4285714,2.09597816 15.4285714,2.89285714 L15.4285714,2.89285714 Z" id="twitter-icon" fill="#DDDDDD"></path>
    </g>
</svg>