<?xml version="1.0" encoding="UTF-8"?>
<svg width="16px" height="16px" viewBox="0 0 16 16" version="1.1" xmlns="http://www.w3.org/2000/svg" xmlns:xlink="http://www.w3.org/1999/xlink">
    <!-- Generator: Sketch 48.2 (47327) - http://www.bohemiancoding.com/sketch -->
    <title>footer-email-icon_light</title>
    <desc>Created with Sketch.</desc>
    <defs></defs>
    <g id="Page-1" stroke="none" stroke-width="1" fill="none" fill-rule="evenodd">
        <path d="M12.5357143,0 C13.3325933,0 14.0139481,0.282921278 14.5797991,0.848772321 C15.1456502,1.41462336 15.4285714,2.09597816 15.4285714,2.89285714 L15.4285714,12.5357143 C15.4285714,13.3325933 15.1456502,14.0139481 14.5797991,14.5797991 C14.0139481,15.1456502 13.3325933,15.4285714 12.5357143,15.4285714 L2.89285714,15.4285714 C2.09597816,15.4285714 1.41462336,15.1456502 0.848772321,14.5797991 C0.282921278,14.0139481 0,13.3325933 0,12.5357143 L0,2.89285714 C0,2.09597816 0.282921278,1.41462336 0.848772321,0.848772321 C1.41462336,0.282921278 2.09597816,0 2.89285714,0 L12.5357143,0 Z M12.8571429,10.6071429 L12.8571429,6.22767857 C12.6495525,6.46205474 12.435269,6.64620469 12.2142857,6.78013393 C11.986606,6.92745609 11.542972,7.21205146 10.8833705,7.63392857 C10.223769,8.05580568 9.71651963,8.38727558 9.36160714,8.62834821 C8.70535386,9.0904041 8.15625221,9.32142857 7.71428571,9.32142857 L7.71428571,9.32142857 C7.27231922,9.32142857 6.72321757,9.0904041 6.06696429,8.62834821 C5.75892703,8.41406143 5.28515945,8.1043547 4.64564732,7.69921875 C4.0061352,7.2940828 3.52901943,6.98437607 3.21428571,6.77008929 C3.13392817,6.71651759 3.0234382,6.62611671 2.8828125,6.49888393 C2.7421868,6.37165115 2.63839319,6.28125027 2.57142857,6.22767857 L2.57142857,10.6071429 C2.57142857,10.8750013 2.66517763,11.1026776 2.85267857,11.2901786 C3.04017951,11.4776795 3.2678558,11.5714286 3.53571429,11.5714286 L11.8928571,11.5714286 C12.1607156,11.5714286 12.3883919,11.4776795 12.5758929,11.2901786 C12.7633938,11.1026776 12.8571429,10.8750013 12.8571429,10.6071429 L12.8571429,10.6071429 Z M12.8571429,4.8515625 C12.8571429,4.57700756 12.7650679,4.3426349 12.5809152,4.1484375 C12.3967625,3.9542401 12.1674121,3.85714286 11.8928571,3.85714286 L3.53571429,3.85714286 C3.2678558,3.85714286 3.04017951,3.95089192 2.85267857,4.13839286 C2.66517763,4.32589379 2.57142857,4.55357009 2.57142857,4.82142857 C2.57142857,5.06919767 2.67354809,5.3253335 2.87779018,5.58984375 C3.08203227,5.854354 3.30803448,6.07031166 3.55580357,6.23772321 C3.87053729,6.45201 4.33091215,6.74999809 4.93694196,7.13169643 C5.54297178,7.51339477 5.97656119,7.79129377 6.23772321,7.96540179 C6.2578126,7.97879471 6.31473167,8.01729879 6.40848214,8.08091518 C6.50223261,8.14453157 6.57254441,8.1914061 6.61941964,8.22154018 C6.66629488,8.25167426 6.73660667,8.29520061 6.83035714,8.35212054 C6.92410761,8.40904046 7.00278986,8.45256681 7.06640625,8.48270089 C7.13002264,8.51283497 7.20200853,8.54464269 7.28236607,8.578125 C7.36272362,8.61160731 7.43805768,8.63671867 7.50837054,8.65345982 C7.57868339,8.67020098 7.64732109,8.67857143 7.71428571,8.67857143 C7.78125033,8.67857143 7.84988804,8.67020098 7.92020089,8.65345982 C7.99051374,8.63671867 8.06584781,8.61160731 8.14620536,8.578125 C8.2265629,8.54464269 8.29854879,8.51283497 8.36216518,8.48270089 C8.42578157,8.45256681 8.50446382,8.40904046 8.59821429,8.35212054 C8.69196475,8.29520061 8.76227655,8.25167426 8.80915179,8.22154018 C8.85602702,8.1914061 8.92633882,8.14453157 9.02008929,8.08091518 C9.11383975,8.01729879 9.17075883,7.97879471 9.19084821,7.96540179 L11.8727679,6.21763393 C12.107144,6.0636153 12.3297981,5.854354 12.5407366,5.58984375 C12.7516752,5.3253335 12.8571429,5.07924221 12.8571429,4.8515625 L12.8571429,4.8515625 Z" id="email-icon" fill="#DDDDDD"></path>
    </g>
</svg>