<?xml version="1.0" encoding="UTF-8" standalone="no"?>
<svg width="50px" height="157px" viewBox="0 0 50 157" version="1.1" xmlns="http://www.w3.org/2000/svg" xmlns:xlink="http://www.w3.org/1999/xlink" xmlns:sketch="http://www.bohemiancoding.com/sketch/ns">
    <!-- Generator: Sketch 3.4.4 (17249) - http://www.bohemiancoding.com/sketch -->
    <title>logos</title>
    <desc>Created with Sketch.</desc>
    <defs></defs>
    <g id="Page-1" stroke="none" stroke-width="1" fill="none" fill-rule="evenodd" sketch:type="MSPage">
        <g id="logos" sketch:type="MSArtboardGroup">
            <path d="M47.6457417,27.7596454 C46.4196718,28.569195 43.939369,30.4990015 42.3141588,29.7184323 C41.1512133,29.1597291 41.2628949,27.1282537 41.286688,26.101589 C41.3653507,22.8068552 42.3889369,19.5990625 42.8934464,16.3584888 C43.1624534,14.6258436 42.4962483,12.2047963 40.3655575,14.2481488 C38.0333541,16.4839119 36.3697837,19.4570113 34.7834193,22.4334362 C35.4321438,19.0052028 35.5423687,15.5223343 33.0552678,16.3157309 C31.0246048,16.9632755 29.6858822,19.7335124 28.7108532,21.3782663 C28.1791517,22.275232 27.6717287,23.1964272 27.1890699,24.1333003 C27.051653,23.514736 26.813237,22.9170756 26.4359474,22.3588475 C26.0207832,21.7436088 25.4390677,21.3312326 24.7786895,21.0585322 C24.7582954,17.3671001 22.368309,14.0628646 18.171994,13.9279397 C14.2976133,13.8034667 10.3450555,15.9651161 7.05336144,18.4360476 C9.877935,14.0049039 13.2118738,9.78327383 12.8224449,4.25087659 C12.7350419,3.01327292 12.1489562,1.03548248 10.5621062,1.00080107 C8.13521633,0.948541412 6.58284197,3.46460631 5.45485772,5.21815532 C3.0804096,8.91148775 1.84705618,13.7597586 1.22552375,18.0227213 C0.779282889,21.0841869 0.597193309,25.8445665 4.65560586,26.3818908 C5.60975525,26.5077891 6.2555663,25.1172071 5.06737109,24.959478 C1.85094076,24.5337993 2.78955185,19.0379838 3.12459667,17.009359 C3.67717785,13.6642659 4.7527203,10.3148971 6.17738917,7.22920191 C6.95139128,5.55261712 7.97594864,3.8033439 9.4637419,2.65363147 C11.4040885,1.15472951 10.9107471,7.4629451 10.8369401,7.86962024 C9.91241063,12.9673122 5.77970553,16.8839358 3.52373703,21.4176986 C3.03816482,22.3925787 4.41621876,22.4847457 4.96394421,21.9897042 C8.26729197,19.0066281 12.4509821,16.0392298 16.9959381,15.3916851 C20.9217894,14.8329819 22.5596245,17.5718629 22.8072663,20.6200262 C22.1323209,20.5663412 21.4549477,20.5872451 20.8406988,20.6395048 C15.2522482,21.1155427 9.23795082,24.8269285 5.72823487,28.9867971 C4.38271427,30.5816668 3.11488523,32.747592 3.59317386,34.8935635 C4.1690625,37.4742404 6.9159445,38.9631655 9.45840061,38.9992722 C13.0880529,39.0515318 16.3472136,36.2798697 18.6342587,33.8250911 C21.4083327,30.8472409 23.6181719,27.0769442 24.5494994,23.1375163 C24.5655233,23.0686286 24.5732924,22.9997409 24.5878596,22.9308531 C26.4165245,24.6169397 25.2953383,28.2147795 24.6276765,30.1393601 C24.297973,31.1284928 26.0858499,30.9793153 26.3611693,30.1859187 C27.7164014,26.1182171 29.778141,21.7668881 32.5483304,18.4246455 C32.7139106,18.2303346 32.8896877,18.0455255 33.0751763,17.869743 C33.2791166,17.7105886 33.1523823,17.6112952 33.3441833,18.0878083 C33.7428381,19.0788414 33.4053654,20.5877202 33.2528957,21.5816038 C32.905226,23.8430217 32.2516458,26.0787848 31.5266865,28.2489858 C31.1998964,29.2257663 32.8163663,29.0328806 33.1795743,28.4751276 C34.7989576,25.9875679 36.2279967,23.3855122 37.7191889,20.8238388 C38.4402637,19.5848099 39.1812469,18.3576581 39.9659315,17.1561611 C40.2368808,16.7409344 40.527253,16.3385351 40.8215098,15.9380361 C40.977864,15.7294725 41.1516989,15.5351616 41.3284472,15.3432262 C41.3643795,16.105267 41.0167098,17.1694636 40.9171675,17.6915851 C40.614656,19.2760028 40.2631017,20.8499687 39.9800131,22.4381871 C39.5493106,24.8506829 38.8423174,28.1064595 40.3509903,30.2899629 C42.2131597,32.9860861 46.8547445,29.9379229 48.5994055,28.7853599 C49.6006554,28.1245128 48.5134592,27.1862144 47.6457417,27.7596454 Z M14.4461984,35.71309 C11.7119412,37.7540671 6.88001216,38.6743121 5.41601194,34.6750231 C4.59005361,32.4178811 6.71346089,29.9569264 8.17697554,28.4836792 C10.4169202,26.2298627 13.2764549,24.5071944 16.2165947,23.2771921 C18.1074128,22.4866461 20.6678351,21.620086 22.8242613,22.0866222 C22.7689061,23.0681535 22.5863309,24.0325817 22.304699,24.8825138 C20.9237317,29.0452329 17.9957312,33.0640005 14.4461984,35.71309 Z" id="Imported-Layers" fill="#FFFFFF" sketch:type="MSShapeGroup"></path>
            <path d="M47.6457417,66.7596454 C46.4196718,67.569195 43.939369,69.4990015 42.3141588,68.7184323 C41.1512133,68.1597291 41.2628949,66.1282537 41.286688,65.101589 C41.3653507,61.8068552 42.3889369,58.5990625 42.8934464,55.3584888 C43.1624534,53.6258436 42.4962483,51.2047963 40.3655575,53.2481488 C38.0333541,55.4839119 36.3697837,58.4570113 34.7834193,61.4334362 C35.4321438,58.0052028 35.5423687,54.5223343 33.0552678,55.3157309 C31.0246048,55.9632755 29.6858822,58.7335124 28.7108532,60.3782663 C28.1791517,61.275232 27.6717287,62.1964272 27.1890699,63.1333003 C27.051653,62.514736 26.813237,61.9170756 26.4359474,61.3588475 C26.0207832,60.7436088 25.4390677,60.3312326 24.7786895,60.0585322 C24.7582954,56.3671001 22.368309,53.0628646 18.171994,52.9279397 C14.2976133,52.8034667 10.3450555,54.9651161 7.05336144,57.4360476 C9.877935,53.0049039 13.2118738,48.7832738 12.8224449,43.2508766 C12.7350419,42.0132729 12.1489562,40.0354825 10.5621062,40.0008011 C8.13521633,39.9485414 6.58284197,42.4646063 5.45485772,44.2181553 C3.0804096,47.9114877 1.84705618,52.7597586 1.22552375,57.0227213 C0.779282889,60.0841869 0.597193309,64.8445665 4.65560586,65.3818908 C5.60975525,65.5077891 6.2555663,64.1172071 5.06737109,63.959478 C1.85094076,63.5337993 2.78955185,58.0379838 3.12459667,56.009359 C3.67717785,52.6642659 4.7527203,49.3148971 6.17738917,46.2292019 C6.95139128,44.5526171 7.97594864,42.8033439 9.4637419,41.6536315 C11.4040885,40.1547295 10.9107471,46.4629451 10.8369401,46.8696202 C9.91241063,51.9673122 5.77970553,55.8839358 3.52373703,60.4176986 C3.03816482,61.3925787 4.41621876,61.4847457 4.96394421,60.9897042 C8.26729197,58.0066281 12.4509821,55.0392298 16.9959381,54.3916851 C20.9217894,53.8329819 22.5596245,56.5718629 22.8072663,59.6200262 C22.1323209,59.5663412 21.4549477,59.5872451 20.8406988,59.6395048 C15.2522482,60.1155427 9.23795082,63.8269285 5.72823487,67.9867971 C4.38271427,69.5816668 3.11488523,71.747592 3.59317386,73.8935635 C4.1690625,76.4742404 6.9159445,77.9631655 9.45840061,77.9992722 C13.0880529,78.0515318 16.3472136,75.2798697 18.6342587,72.8250911 C21.4083327,69.8472409 23.6181719,66.0769442 24.5494994,62.1375163 C24.5655233,62.0686286 24.5732924,61.9997409 24.5878596,61.9308531 C26.4165245,63.6169397 25.2953383,67.2147795 24.6276765,69.1393601 C24.297973,70.1284928 26.0858499,69.9793153 26.3611693,69.1859187 C27.7164014,65.1182171 29.778141,60.7668881 32.5483304,57.4246455 C32.7139106,57.2303346 32.8896877,57.0455255 33.0751763,56.869743 C33.2791166,56.7105886 33.1523823,56.6112952 33.3441833,57.0878083 C33.7428381,58.0788414 33.4053654,59.5877202 33.2528957,60.5816038 C32.905226,62.8430217 32.2516458,65.0787848 31.5266865,67.2489858 C31.1998964,68.2257663 32.8163663,68.0328806 33.1795743,67.4751276 C34.7989576,64.9875679 36.2279967,62.3855122 37.7191889,59.8238388 C38.4402637,58.5848099 39.1812469,57.3576581 39.9659315,56.1561611 C40.2368808,55.7409344 40.527253,55.3385351 40.8215098,54.9380361 C40.977864,54.7294725 41.1516989,54.5351616 41.3284472,54.3432262 C41.3643795,55.105267 41.0167098,56.1694636 40.9171675,56.6915851 C40.614656,58.2760028 40.2631017,59.8499687 39.9800131,61.4381871 C39.5493106,63.8506829 38.8423174,67.1064595 40.3509903,69.2899629 C42.2131597,71.9860861 46.8547445,68.9379229 48.5994055,67.7853599 C49.6006554,67.1245128 48.5134592,66.1862144 47.6457417,66.7596454 Z M14.4461984,74.71309 C11.7119412,76.7540671 6.88001216,77.6743121 5.41601194,73.6750231 C4.59005361,71.4178811 6.71346089,68.9569264 8.17697554,67.4836792 C10.4169202,65.2298627 13.2764549,63.5071944 16.2165947,62.2771921 C18.1074128,61.4866461 20.6678351,60.620086 22.8242613,61.0866222 C22.7689061,62.0681535 22.5863309,63.0325817 22.304699,63.8825138 C20.9237317,68.0452329 17.9957312,72.0640005 14.4461984,74.71309 Z" id="Imported-Layers" fill="#1EB2C3" sketch:type="MSShapeGroup"></path>
            <path d="M47.6457417,105.759645 C46.4196718,106.569195 43.939369,108.499002 42.3141588,107.718432 C41.1512133,107.159729 41.2628949,105.128254 41.286688,104.101589 C41.3653507,100.806855 42.3889369,97.5990625 42.8934464,94.3584888 C43.1624534,92.6258436 42.4962483,90.2047963 40.3655575,92.2481488 C38.0333541,94.4839119 36.3697837,97.4570113 34.7834193,100.433436 C35.4321438,97.0052028 35.5423687,93.5223343 33.0552678,94.3157309 C31.0246048,94.9632755 29.6858822,97.7335124 28.7108532,99.3782663 C28.1791517,100.275232 27.6717287,101.196427 27.1890699,102.1333 C27.051653,101.514736 26.813237,100.917076 26.4359474,100.358847 C26.0207832,99.7436088 25.4390677,99.3312326 24.7786895,99.0585322 C24.7582954,95.3671001 22.368309,92.0628646 18.171994,91.9279397 C14.2976133,91.8034667 10.3450555,93.9651161 7.05336144,96.4360476 C9.877935,92.0049039 13.2118738,87.7832738 12.8224449,82.2508766 C12.7350419,81.0132729 12.1489562,79.0354825 10.5621062,79.0008011 C8.13521633,78.9485414 6.58284197,81.4646063 5.45485772,83.2181553 C3.0804096,86.9114877 1.84705618,91.7597586 1.22552375,96.0227213 C0.779282889,99.0841869 0.597193309,103.844567 4.65560586,104.381891 C5.60975525,104.507789 6.2555663,103.117207 5.06737109,102.959478 C1.85094076,102.533799 2.78955185,97.0379838 3.12459667,95.009359 C3.67717785,91.6642659 4.7527203,88.3148971 6.17738917,85.2292019 C6.95139128,83.5526171 7.97594864,81.8033439 9.4637419,80.6536315 C11.4040885,79.1547295 10.9107471,85.4629451 10.8369401,85.8696202 C9.91241063,90.9673122 5.77970553,94.8839358 3.52373703,99.4176986 C3.03816482,100.392579 4.41621876,100.484746 4.96394421,99.9897042 C8.26729197,97.0066281 12.4509821,94.0392298 16.9959381,93.3916851 C20.9217894,92.8329819 22.5596245,95.5718629 22.8072663,98.6200262 C22.1323209,98.5663412 21.4549477,98.5872451 20.8406988,98.6395048 C15.2522482,99.1155427 9.23795082,102.826928 5.72823487,106.986797 C4.38271427,108.581667 3.11488523,110.747592 3.59317386,112.893564 C4.1690625,115.47424 6.9159445,116.963165 9.45840061,116.999272 C13.0880529,117.051532 16.3472136,114.27987 18.6342587,111.825091 C21.4083327,108.847241 23.6181719,105.076944 24.5494994,101.137516 C24.5655233,101.068629 24.5732924,100.999741 24.5878596,100.930853 C26.4165245,102.61694 25.2953383,106.214779 24.6276765,108.13936 C24.297973,109.128493 26.0858499,108.979315 26.3611693,108.185919 C27.7164014,104.118217 29.778141,99.7668881 32.5483304,96.4246455 C32.7139106,96.2303346 32.8896877,96.0455255 33.0751763,95.869743 C33.2791166,95.7105886 33.1523823,95.6112952 33.3441833,96.0878083 C33.7428381,97.0788414 33.4053654,98.5877202 33.2528957,99.5816038 C32.905226,101.843022 32.2516458,104.078785 31.5266865,106.248986 C31.1998964,107.225766 32.8163663,107.032881 33.1795743,106.475128 C34.7989576,103.987568 36.2279967,101.385512 37.7191889,98.8238388 C38.4402637,97.5848099 39.1812469,96.3576581 39.9659315,95.1561611 C40.2368808,94.7409344 40.527253,94.3385351 40.8215098,93.9380361 C40.977864,93.7294725 41.1516989,93.5351616 41.3284472,93.3432262 C41.3643795,94.105267 41.0167098,95.1694636 40.9171675,95.6915851 C40.614656,97.2760028 40.2631017,98.8499687 39.9800131,100.438187 C39.5493106,102.850683 38.8423174,106.106459 40.3509903,108.289963 C42.2131597,110.986086 46.8547445,107.937923 48.5994055,106.78536 C49.6006554,106.124513 48.5134592,105.186214 47.6457417,105.759645 Z M14.4461984,113.71309 C11.7119412,115.754067 6.88001216,116.674312 5.41601194,112.675023 C4.59005361,110.417881 6.71346089,107.956926 8.17697554,106.483679 C10.4169202,104.229863 13.2764549,102.507194 16.2165947,101.277192 C18.1074128,100.486646 20.6678351,99.620086 22.8242613,100.086622 C22.7689061,101.068154 22.5863309,102.032582 22.304699,102.882514 C20.9237317,107.045233 17.9957312,111.064 14.4461984,113.71309 Z" id="Imported-Layers" fill="#1E9EED" sketch:type="MSShapeGroup"></path>
            <path d="M47.6457417,144.759645 C46.4196718,145.569195 43.939369,147.499002 42.3141588,146.718432 C41.1512133,146.159729 41.2628949,144.128254 41.286688,143.101589 C41.3653507,139.806855 42.3889369,136.599063 42.8934464,133.358489 C43.1624534,131.625844 42.4962483,129.204796 40.3655575,131.248149 C38.0333541,133.483912 36.3697837,136.457011 34.7834193,139.433436 C35.4321438,136.005203 35.5423687,132.522334 33.0552678,133.315731 C31.0246048,133.963275 29.6858822,136.733512 28.7108532,138.378266 C28.1791517,139.275232 27.6717287,140.196427 27.1890699,141.1333 C27.051653,140.514736 26.813237,139.917076 26.4359474,139.358847 C26.0207832,138.743609 25.4390677,138.331233 24.7786895,138.058532 C24.7582954,134.3671 22.368309,131.062865 18.171994,130.92794 C14.2976133,130.803467 10.3450555,132.965116 7.05336144,135.436048 C9.877935,131.004904 13.2118738,126.783274 12.8224449,121.250877 C12.7350419,120.013273 12.1489562,118.035482 10.5621062,118.000801 C8.13521633,117.948541 6.58284197,120.464606 5.45485772,122.218155 C3.0804096,125.911488 1.84705618,130.759759 1.22552375,135.022721 C0.779282889,138.084187 0.597193309,142.844567 4.65560586,143.381891 C5.60975525,143.507789 6.2555663,142.117207 5.06737109,141.959478 C1.85094076,141.533799 2.78955185,136.037984 3.12459667,134.009359 C3.67717785,130.664266 4.7527203,127.314897 6.17738917,124.229202 C6.95139128,122.552617 7.97594864,120.803344 9.4637419,119.653631 C11.4040885,118.15473 10.9107471,124.462945 10.8369401,124.86962 C9.91241063,129.967312 5.77970553,133.883936 3.52373703,138.417699 C3.03816482,139.392579 4.41621876,139.484746 4.96394421,138.989704 C8.26729197,136.006628 12.4509821,133.03923 16.9959381,132.391685 C20.9217894,131.832982 22.5596245,134.571863 22.8072663,137.620026 C22.1323209,137.566341 21.4549477,137.587245 20.8406988,137.639505 C15.2522482,138.115543 9.23795082,141.826928 5.72823487,145.986797 C4.38271427,147.581667 3.11488523,149.747592 3.59317386,151.893564 C4.1690625,154.47424 6.9159445,155.963165 9.45840061,155.999272 C13.0880529,156.051532 16.3472136,153.27987 18.6342587,150.825091 C21.4083327,147.847241 23.6181719,144.076944 24.5494994,140.137516 C24.5655233,140.068629 24.5732924,139.999741 24.5878596,139.930853 C26.4165245,141.61694 25.2953383,145.214779 24.6276765,147.13936 C24.297973,148.128493 26.0858499,147.979315 26.3611693,147.185919 C27.7164014,143.118217 29.778141,138.766888 32.5483304,135.424646 C32.7139106,135.230335 32.8896877,135.045525 33.0751763,134.869743 C33.2791166,134.710589 33.1523823,134.611295 33.3441833,135.087808 C33.7428381,136.078841 33.4053654,137.58772 33.2528957,138.581604 C32.905226,140.843022 32.2516458,143.078785 31.5266865,145.248986 C31.1998964,146.225766 32.8163663,146.032881 33.1795743,145.475128 C34.7989576,142.987568 36.2279967,140.385512 37.7191889,137.823839 C38.4402637,136.58481 39.1812469,135.357658 39.9659315,134.156161 C40.2368808,133.740934 40.527253,133.338535 40.8215098,132.938036 C40.977864,132.729473 41.1516989,132.535162 41.3284472,132.343226 C41.3643795,133.105267 41.0167098,134.169464 40.9171675,134.691585 C40.614656,136.276003 40.2631017,137.849969 39.9800131,139.438187 C39.5493106,141.850683 38.8423174,145.106459 40.3509903,147.289963 C42.2131597,149.986086 46.8547445,146.937923 48.5994055,145.78536 C49.6006554,145.124513 48.5134592,144.186214 47.6457417,144.759645 Z M14.4461984,152.71309 C11.7119412,154.754067 6.88001216,155.674312 5.41601194,151.675023 C4.59005361,149.417881 6.71346089,146.956926 8.17697554,145.483679 C10.4169202,143.229863 13.2764549,141.507194 16.2165947,140.277192 C18.1074128,139.486646 20.6678351,138.620086 22.8242613,139.086622 C22.7689061,140.068154 22.5863309,141.032582 22.304699,141.882514 C20.9237317,146.045233 17.9957312,150.064 14.4461984,152.71309 Z" id="Imported-Layers" fill="#E4472A" sketch:type="MSShapeGroup"></path>
        </g>
    </g>
</svg>