<?xml version="1.0" encoding="UTF-8"?>
<svg width="50px" height="200px" viewBox="0 0 50 200" version="1.1" xmlns="http://www.w3.org/2000/svg" xmlns:xlink="http://www.w3.org/1999/xlink">
    <!-- Generator: Sketch 45.1 (43504) - http://www.bohemiancoding.com/sketch -->
    <title>logos</title>
    <desc>Created with Sketch.</desc>
    <defs></defs>
    <g id="Page-1" stroke="none" stroke-width="1" fill="none" fill-rule="evenodd">
        <g id="logos">
            <path d="M47.6457417,27.7596454 C48.5134592,27.1862144 49.6006554,28.1245128 48.5994055,28.7853599 C46.8547445,29.9379229 42.2131597,32.9860861 40.3509903,30.2899629 C38.8423174,28.1064595 39.5493106,24.8506829 39.9800131,22.4381871 C40.2631017,20.8499687 40.614656,19.2760028 40.9171675,17.6915851 C41.0167098,17.1694636 41.3643795,16.105267 41.3284472,15.3432262 C41.1516989,15.5351616 40.977864,15.7294725 40.8215098,15.9380361 C40.527253,16.3385351 40.2368808,16.7409344 39.9659315,17.1561611 C39.1812469,18.3576581 38.4402637,19.5848099 37.7191889,20.8238388 C36.2279967,23.3855122 34.7989576,25.9875679 33.1795743,28.4751276 C32.8163663,29.0328806 31.1998964,29.2257663 31.5266865,28.2489858 C32.2516458,26.0787848 32.905226,23.8430217 33.2528957,21.5816038 C33.4053654,20.5877202 33.7428381,19.0788414 33.3441833,18.0878083 C33.1523823,17.6112952 33.2791166,17.7105886 33.0751763,17.869743 C32.8896877,18.0455255 32.7139106,18.2303346 32.5483304,18.4246455 C29.778141,21.7668881 27.7164014,26.1182171 26.3611693,30.1859187 C26.0858499,30.9793153 24.297973,31.1284928 24.6276765,30.1393601 C25.2953383,28.2147795 26.4165245,24.6169397 24.5878596,22.9308531 C24.5732924,22.9997409 24.5655233,23.0686286 24.5494994,23.1375163 C23.6181719,27.0769442 21.4083327,30.8472409 18.6342587,33.8250911 C16.3472136,36.2798697 13.0880529,39.0515318 9.45840061,38.9992722 C6.9159445,38.9631655 4.1690625,37.4742404 3.59317386,34.8935635 C3.11488523,32.747592 4.38271427,30.5816668 5.72823487,28.9867971 C9.23795082,24.8269285 15.2522482,21.1155427 20.8406988,20.6395048 C21.4549477,20.5872451 22.1323209,20.5663412 22.8072663,20.6200262 C22.5596245,17.5718629 20.9217894,14.8329819 16.9959381,15.3916851 C12.4509821,16.0392298 8.26729197,19.0066281 4.96394421,21.9897042 C4.41621876,22.4847457 3.03816482,22.3925787 3.52373703,21.4176986 C5.77970553,16.8839358 9.91241063,12.9673122 10.8369401,7.86962024 C10.9107471,7.4629451 11.4040885,1.15472951 9.4637419,2.65363147 C7.97594864,3.8033439 6.95139128,5.55261712 6.17738917,7.22920191 C4.7527203,10.3148971 3.67717785,13.6642659 3.12459667,17.009359 C2.78955185,19.0379838 1.85094076,24.5337993 5.06737109,24.959478 C6.2555663,25.1172071 5.60975525,26.5077891 4.65560586,26.3818908 C0.597193309,25.8445665 0.779282889,21.0841869 1.22552375,18.0227213 C1.84705618,13.7597586 3.0804096,8.91148775 5.45485772,5.21815532 C6.58284197,3.46460631 8.13521633,0.948541412 10.5621062,1.00080107 C12.1489562,1.03548248 12.7350419,3.01327292 12.8224449,4.25087659 C13.2118738,9.78327383 9.877935,14.0049039 7.05336144,18.4360476 C10.3450555,15.9651161 14.2976133,13.8034667 18.171994,13.9279397 C22.368309,14.0628646 24.7582954,17.3671001 24.7786895,21.0585322 C25.4390677,21.3312326 26.0207832,21.7436088 26.4359474,22.3588475 C26.813237,22.9170756 27.051653,23.514736 27.1890699,24.1333003 C27.6717287,23.1964272 28.1791517,22.275232 28.7108532,21.3782663 C29.6858822,19.7335124 31.0246048,16.9632755 33.0552678,16.3157309 C35.5423687,15.5223343 35.4321438,19.0052028 34.7834193,22.4334362 C36.3697837,19.4570113 38.0333541,16.4839119 40.3655575,14.2481488 C42.4962483,12.2047963 43.1624534,14.6258436 42.8934464,16.3584888 C42.3889369,19.5990625 41.3653507,22.8068552 41.286688,26.101589 C41.2628949,27.1282537 41.1512133,29.1597291 42.3141588,29.7184323 C43.939369,30.4990015 46.4196718,28.569195 47.6457417,27.7596454 Z M14.4461984,35.71309 C17.9957312,33.0640005 20.9237317,29.0452329 22.304699,24.8825138 C22.5863309,24.0325817 22.7689061,23.0681535 22.8242613,22.0866222 C20.6678351,21.620086 18.1074128,22.4866461 16.2165947,23.2771921 C13.2764549,24.5071944 10.4169202,26.2298627 8.17697554,28.4836792 C6.71346089,29.9569264 4.59005361,32.4178811 5.41601194,34.6750231 C6.88001216,38.6743121 11.7119412,37.7540671 14.4461984,35.71309 Z" id="Imported-Layers" fill="#FFFFFF"></path>
            <path d="M47.6457417,67.7596454 C48.5134592,67.1862144 49.6006554,68.1245128 48.5994055,68.7853599 C46.8547445,69.9379229 42.2131597,72.9860861 40.3509903,70.2899629 C38.8423174,68.1064595 39.5493106,64.8506829 39.9800131,62.4381871 C40.2631017,60.8499687 40.614656,59.2760028 40.9171675,57.6915851 C41.0167098,57.1694636 41.3643795,56.105267 41.3284472,55.3432262 C41.1516989,55.5351616 40.977864,55.7294725 40.8215098,55.9380361 C40.527253,56.3385351 40.2368808,56.7409344 39.9659315,57.1561611 C39.1812469,58.3576581 38.4402637,59.5848099 37.7191889,60.8238388 C36.2279967,63.3855122 34.7989576,65.9875679 33.1795743,68.4751276 C32.8163663,69.0328806 31.1998964,69.2257663 31.5266865,68.2489858 C32.2516458,66.0787848 32.905226,63.8430217 33.2528957,61.5816038 C33.4053654,60.5877202 33.7428381,59.0788414 33.3441833,58.0878083 C33.1523823,57.6112952 33.2791166,57.7105886 33.0751763,57.869743 C32.8896877,58.0455255 32.7139106,58.2303346 32.5483304,58.4246455 C29.778141,61.7668881 27.7164014,66.1182171 26.3611693,70.1859187 C26.0858499,70.9793153 24.297973,71.1284928 24.6276765,70.1393601 C25.2953383,68.2147795 26.4165245,64.6169397 24.5878596,62.9308531 C24.5732924,62.9997409 24.5655233,63.0686286 24.5494994,63.1375163 C23.6181719,67.0769442 21.4083327,70.8472409 18.6342587,73.8250911 C16.3472136,76.2798697 13.0880529,79.0515318 9.45840061,78.9992722 C6.9159445,78.9631655 4.1690625,77.4742404 3.59317386,74.8935635 C3.11488523,72.747592 4.38271427,70.5816668 5.72823487,68.9867971 C9.23795082,64.8269285 15.2522482,61.1155427 20.8406988,60.6395048 C21.4549477,60.5872451 22.1323209,60.5663412 22.8072663,60.6200262 C22.5596245,57.5718629 20.9217894,54.8329819 16.9959381,55.3916851 C12.4509821,56.0392298 8.26729197,59.0066281 4.96394421,61.9897042 C4.41621876,62.4847457 3.03816482,62.3925787 3.52373703,61.4176986 C5.77970553,56.8839358 9.91241063,52.9673122 10.8369401,47.8696202 C10.9107471,47.4629451 11.4040885,41.1547295 9.4637419,42.6536315 C7.97594864,43.8033439 6.95139128,45.5526171 6.17738917,47.2292019 C4.7527203,50.3148971 3.67717785,53.6642659 3.12459667,57.009359 C2.78955185,59.0379838 1.85094076,64.5337993 5.06737109,64.959478 C6.2555663,65.1172071 5.60975525,66.5077891 4.65560586,66.3818908 C0.597193309,65.8445665 0.779282889,61.0841869 1.22552375,58.0227213 C1.84705618,53.7597586 3.0804096,48.9114877 5.45485772,45.2181553 C6.58284197,43.4646063 8.13521633,40.9485414 10.5621062,41.0008011 C12.1489562,41.0354825 12.7350419,43.0132729 12.8224449,44.2508766 C13.2118738,49.7832738 9.877935,54.0049039 7.05336144,58.4360476 C10.3450555,55.9651161 14.2976133,53.8034667 18.171994,53.9279397 C22.368309,54.0628646 24.7582954,57.3671001 24.7786895,61.0585322 C25.4390677,61.3312326 26.0207832,61.7436088 26.4359474,62.3588475 C26.813237,62.9170756 27.051653,63.514736 27.1890699,64.1333003 C27.6717287,63.1964272 28.1791517,62.275232 28.7108532,61.3782663 C29.6858822,59.7335124 31.0246048,56.9632755 33.0552678,56.3157309 C35.5423687,55.5223343 35.4321438,59.0052028 34.7834193,62.4334362 C36.3697837,59.4570113 38.0333541,56.4839119 40.3655575,54.2481488 C42.4962483,52.2047963 43.1624534,54.6258436 42.8934464,56.3584888 C42.3889369,59.5990625 41.3653507,62.8068552 41.286688,66.101589 C41.2628949,67.1282537 41.1512133,69.1597291 42.3141588,69.7184323 C43.939369,70.4990015 46.4196718,68.569195 47.6457417,67.7596454 Z M14.4461984,75.71309 C17.9957312,73.0640005 20.9237317,69.0452329 22.304699,64.8825138 C22.5863309,64.0325817 22.7689061,63.0681535 22.8242613,62.0866222 C20.6678351,61.620086 18.1074128,62.4866461 16.2165947,63.2771921 C13.2764549,64.5071944 10.4169202,66.2298627 8.17697554,68.4836792 C6.71346089,69.9569264 4.59005361,72.4178811 5.41601194,74.6750231 C6.88001216,78.6743121 11.7119412,77.7540671 14.4461984,75.71309 Z" id="Imported-Layers" fill="#1EB2C3"></path>
            <path d="M47.6457417,107.759645 C48.5134592,107.186214 49.6006554,108.124513 48.5994055,108.78536 C46.8547445,109.937923 42.2131597,112.986086 40.3509903,110.289963 C38.8423174,108.106459 39.5493106,104.850683 39.9800131,102.438187 C40.2631017,100.849969 40.614656,99.2760028 40.9171675,97.6915851 C41.0167098,97.1694636 41.3643795,96.105267 41.3284472,95.3432262 C41.1516989,95.5351616 40.977864,95.7294725 40.8215098,95.9380361 C40.527253,96.3385351 40.2368808,96.7409344 39.9659315,97.1561611 C39.1812469,98.3576581 38.4402637,99.5848099 37.7191889,100.823839 C36.2279967,103.385512 34.7989576,105.987568 33.1795743,108.475128 C32.8163663,109.032881 31.1998964,109.225766 31.5266865,108.248986 C32.2516458,106.078785 32.905226,103.843022 33.2528957,101.581604 C33.4053654,100.58772 33.7428381,99.0788414 33.3441833,98.0878083 C33.1523823,97.6112952 33.2791166,97.7105886 33.0751763,97.869743 C32.8896877,98.0455255 32.7139106,98.2303346 32.5483304,98.4246455 C29.778141,101.766888 27.7164014,106.118217 26.3611693,110.185919 C26.0858499,110.979315 24.297973,111.128493 24.6276765,110.13936 C25.2953383,108.214779 26.4165245,104.61694 24.5878596,102.930853 C24.5732924,102.999741 24.5655233,103.068629 24.5494994,103.137516 C23.6181719,107.076944 21.4083327,110.847241 18.6342587,113.825091 C16.3472136,116.27987 13.0880529,119.051532 9.45840061,118.999272 C6.9159445,118.963165 4.1690625,117.47424 3.59317386,114.893564 C3.11488523,112.747592 4.38271427,110.581667 5.72823487,108.986797 C9.23795082,104.826928 15.2522482,101.115543 20.8406988,100.639505 C21.4549477,100.587245 22.1323209,100.566341 22.8072663,100.620026 C22.5596245,97.5718629 20.9217894,94.8329819 16.9959381,95.3916851 C12.4509821,96.0392298 8.26729197,99.0066281 4.96394421,101.989704 C4.41621876,102.484746 3.03816482,102.392579 3.52373703,101.417699 C5.77970553,96.8839358 9.91241063,92.9673122 10.8369401,87.8696202 C10.9107471,87.4629451 11.4040885,81.1547295 9.4637419,82.6536315 C7.97594864,83.8033439 6.95139128,85.5526171 6.17738917,87.2292019 C4.7527203,90.3148971 3.67717785,93.6642659 3.12459667,97.009359 C2.78955185,99.0379838 1.85094076,104.533799 5.06737109,104.959478 C6.2555663,105.117207 5.60975525,106.507789 4.65560586,106.381891 C0.597193309,105.844567 0.779282889,101.084187 1.22552375,98.0227213 C1.84705618,93.7597586 3.0804096,88.9114877 5.45485772,85.2181553 C6.58284197,83.4646063 8.13521633,80.9485414 10.5621062,81.0008011 C12.1489562,81.0354825 12.7350419,83.0132729 12.8224449,84.2508766 C13.2118738,89.7832738 9.877935,94.0049039 7.05336144,98.4360476 C10.3450555,95.9651161 14.2976133,93.8034667 18.171994,93.9279397 C22.368309,94.0628646 24.7582954,97.3671001 24.7786895,101.058532 C25.4390677,101.331233 26.0207832,101.743609 26.4359474,102.358847 C26.813237,102.917076 27.051653,103.514736 27.1890699,104.1333 C27.6717287,103.196427 28.1791517,102.275232 28.7108532,101.378266 C29.6858822,99.7335124 31.0246048,96.9632755 33.0552678,96.3157309 C35.5423687,95.5223343 35.4321438,99.0052028 34.7834193,102.433436 C36.3697837,99.4570113 38.0333541,96.4839119 40.3655575,94.2481488 C42.4962483,92.2047963 43.1624534,94.6258436 42.8934464,96.3584888 C42.3889369,99.5990625 41.3653507,102.806855 41.286688,106.101589 C41.2628949,107.128254 41.1512133,109.159729 42.3141588,109.718432 C43.939369,110.499002 46.4196718,108.569195 47.6457417,107.759645 Z M14.4461984,115.71309 C17.9957312,113.064 20.9237317,109.045233 22.304699,104.882514 C22.5863309,104.032582 22.7689061,103.068154 22.8242613,102.086622 C20.6678351,101.620086 18.1074128,102.486646 16.2165947,103.277192 C13.2764549,104.507194 10.4169202,106.229863 8.17697554,108.483679 C6.71346089,109.956926 4.59005361,112.417881 5.41601194,114.675023 C6.88001216,118.674312 11.7119412,117.754067 14.4461984,115.71309 Z" id="Imported-Layers" fill="#1E9EED"></path>
            <path d="M47.6457417,147.759645 C48.5134592,147.186214 49.6006554,148.124513 48.5994055,148.78536 C46.8547445,149.937923 42.2131597,152.986086 40.3509903,150.289963 C38.8423174,148.106459 39.5493106,144.850683 39.9800131,142.438187 C40.2631017,140.849969 40.614656,139.276003 40.9171675,137.691585 C41.0167098,137.169464 41.3643795,136.105267 41.3284472,135.343226 C41.1516989,135.535162 40.977864,135.729473 40.8215098,135.938036 C40.527253,136.338535 40.2368808,136.740934 39.9659315,137.156161 C39.1812469,138.357658 38.4402637,139.58481 37.7191889,140.823839 C36.2279967,143.385512 34.7989576,145.987568 33.1795743,148.475128 C32.8163663,149.032881 31.1998964,149.225766 31.5266865,148.248986 C32.2516458,146.078785 32.905226,143.843022 33.2528957,141.581604 C33.4053654,140.58772 33.7428381,139.078841 33.3441833,138.087808 C33.1523823,137.611295 33.2791166,137.710589 33.0751763,137.869743 C32.8896877,138.045525 32.7139106,138.230335 32.5483304,138.424646 C29.778141,141.766888 27.7164014,146.118217 26.3611693,150.185919 C26.0858499,150.979315 24.297973,151.128493 24.6276765,150.13936 C25.2953383,148.214779 26.4165245,144.61694 24.5878596,142.930853 C24.5732924,142.999741 24.5655233,143.068629 24.5494994,143.137516 C23.6181719,147.076944 21.4083327,150.847241 18.6342587,153.825091 C16.3472136,156.27987 13.0880529,159.051532 9.45840061,158.999272 C6.9159445,158.963165 4.1690625,157.47424 3.59317386,154.893564 C3.11488523,152.747592 4.38271427,150.581667 5.72823487,148.986797 C9.23795082,144.826928 15.2522482,141.115543 20.8406988,140.639505 C21.4549477,140.587245 22.1323209,140.566341 22.8072663,140.620026 C22.5596245,137.571863 20.9217894,134.832982 16.9959381,135.391685 C12.4509821,136.03923 8.26729197,139.006628 4.96394421,141.989704 C4.41621876,142.484746 3.03816482,142.392579 3.52373703,141.417699 C5.77970553,136.883936 9.91241063,132.967312 10.8369401,127.86962 C10.9107471,127.462945 11.4040885,121.15473 9.4637419,122.653631 C7.97594864,123.803344 6.95139128,125.552617 6.17738917,127.229202 C4.7527203,130.314897 3.67717785,133.664266 3.12459667,137.009359 C2.78955185,139.037984 1.85094076,144.533799 5.06737109,144.959478 C6.2555663,145.117207 5.60975525,146.507789 4.65560586,146.381891 C0.597193309,145.844567 0.779282889,141.084187 1.22552375,138.022721 C1.84705618,133.759759 3.0804096,128.911488 5.45485772,125.218155 C6.58284197,123.464606 8.13521633,120.948541 10.5621062,121.000801 C12.1489562,121.035482 12.7350419,123.013273 12.8224449,124.250877 C13.2118738,129.783274 9.877935,134.004904 7.05336144,138.436048 C10.3450555,135.965116 14.2976133,133.803467 18.171994,133.92794 C22.368309,134.062865 24.7582954,137.3671 24.7786895,141.058532 C25.4390677,141.331233 26.0207832,141.743609 26.4359474,142.358847 C26.813237,142.917076 27.051653,143.514736 27.1890699,144.1333 C27.6717287,143.196427 28.1791517,142.275232 28.7108532,141.378266 C29.6858822,139.733512 31.0246048,136.963275 33.0552678,136.315731 C35.5423687,135.522334 35.4321438,139.005203 34.7834193,142.433436 C36.3697837,139.457011 38.0333541,136.483912 40.3655575,134.248149 C42.4962483,132.204796 43.1624534,134.625844 42.8934464,136.358489 C42.3889369,139.599063 41.3653507,142.806855 41.286688,146.101589 C41.2628949,147.128254 41.1512133,149.159729 42.3141588,149.718432 C43.939369,150.499002 46.4196718,148.569195 47.6457417,147.759645 Z M14.4461984,155.71309 C17.9957312,153.064 20.9237317,149.045233 22.304699,144.882514 C22.5863309,144.032582 22.7689061,143.068154 22.8242613,142.086622 C20.6678351,141.620086 18.1074128,142.486646 16.2165947,143.277192 C13.2764549,144.507194 10.4169202,146.229863 8.17697554,148.483679 C6.71346089,149.956926 4.59005361,152.417881 5.41601194,154.675023 C6.88001216,158.674312 11.7119412,157.754067 14.4461984,155.71309 Z" id="Imported-Layers" fill="#E4472A"></path>
        </g>
        <path d="M47.6457417,188.041326 C48.5134592,187.461859 49.6006554,188.410034 48.5994055,189.077837 C46.8547445,190.242533 42.2131597,193.322782 40.3509903,190.598278 C38.8423174,188.391791 39.5493106,185.101743 39.9800131,182.663852 C40.2631017,181.058916 40.614656,179.468382 40.9171675,177.867286 C41.0167098,177.339668 41.3643795,176.26427 41.3284472,175.494207 C41.1516989,175.688163 40.977864,175.88452 40.8215098,176.095279 C40.527253,176.499993 40.2368808,176.906628 39.9659315,177.326226 C39.1812469,178.54037 38.4402637,179.780439 37.7191889,181.032511 C36.2279967,183.621149 34.7989576,186.250595 33.1795743,188.764339 C32.8163663,189.327964 31.1998964,189.52288 31.5266865,188.535817 C32.2516458,186.342772 32.905226,184.083475 33.2528957,181.798252 C33.4053654,180.793907 33.7428381,179.269145 33.3441833,178.26768 C33.1523823,177.786151 33.2791166,177.88649 33.0751763,178.047319 C32.8896877,178.224952 32.7139106,178.411707 32.5483304,178.608063 C29.778141,181.985487 27.7164014,186.382619 26.3611693,190.493139 C26.0858499,191.294887 24.297973,191.445635 24.6276765,190.44609 C25.2953383,188.501251 26.4165245,184.865539 24.5878596,183.161704 C24.5732924,183.231317 24.5655233,183.30093 24.5494994,183.370543 C23.6181719,187.351438 21.4083327,191.161422 18.6342587,194.170618 C16.3472136,196.651237 13.0880529,199.452074 9.45840061,199.399264 C6.9159445,199.362778 4.1690625,197.85818 3.59317386,195.250338 C3.11488523,193.081777 4.38271427,190.893053 5.72823487,189.281395 C9.23795082,185.077738 15.2522482,181.327285 20.8406988,180.846236 C21.4549477,180.793427 22.1323209,180.772303 22.8072663,180.826553 C22.5596245,177.746304 20.9217894,174.978592 16.9959381,175.543177 C12.4509821,176.197537 8.26729197,179.196172 4.96394421,182.210649 C4.41621876,182.710901 3.03816482,182.617764 3.52373703,181.632622 C5.77970553,177.051135 9.91241063,173.093284 10.8369401,167.941932 C10.9107471,167.530976 11.4040885,161.156358 9.4637419,162.671038 C7.97594864,163.832853 6.95139128,165.600539 6.17738917,167.294772 C4.7527203,170.412949 3.67717785,173.797574 3.12459667,177.177879 C2.78955185,179.227857 1.85094076,184.781524 5.06737109,185.211683 C6.2555663,185.371072 5.60975525,186.776292 4.65560586,186.649069 C0.597193309,186.106088 0.779282889,181.295599 1.22552375,178.201908 C1.84705618,173.894072 3.0804096,168.994767 5.45485772,165.262557 C6.58284197,163.49055 8.13521633,160.948 10.5621062,161.00081 C12.1489562,161.035856 12.7350419,163.034465 12.8224449,164.285096 C13.2118738,169.875729 9.877935,174.141798 7.05336144,178.619585 C10.3450555,176.122644 14.2976133,173.93824 18.171994,174.064023 C22.368309,174.200368 24.7582954,177.539385 24.7786895,181.269675 C25.4390677,181.545246 26.0207832,181.961963 26.4359474,182.583677 C26.813237,183.147782 27.051653,183.751733 27.1890699,184.376809 C27.6717287,183.430074 28.1791517,182.499182 28.7108532,181.592774 C29.6858822,179.930707 31.0246048,177.13131 33.0552678,176.476949 C35.5423687,175.675201 35.4321438,179.194731 34.7834193,182.659051 C36.3697837,179.651296 38.0333541,176.6469 40.3655575,174.387603 C42.4962483,172.322741 43.1624534,174.769274 42.8934464,176.520157 C42.3889369,179.794842 41.3653507,183.036401 41.286688,186.365816 C41.2628949,187.403288 41.1512133,189.456147 42.3141588,190.020732 C43.939369,190.809517 46.4196718,188.859397 47.6457417,188.041326 Z M14.4461984,196.078491 C17.9957312,193.401516 20.9237317,189.340446 22.304699,185.133909 C22.5863309,184.27503 22.7689061,183.30045 22.8242613,182.308587 C20.6678351,181.837139 18.1074128,182.712821 16.2165947,183.511689 C13.2764549,184.754639 10.4169202,186.49544 8.17697554,188.772981 C6.71346089,190.261736 4.59005361,192.748596 5.41601194,195.029497 C6.88001216,199.070884 11.7119412,198.140952 14.4461984,196.078491 Z" id="Imported-Layers" fill="#28C5CA"></path>
    </g>
</svg>