<?xml version="1.0" encoding="UTF-8" standalone="no"?>
<svg width="48px" height="39px" viewBox="0 0 48 39" version="1.1" xmlns="http://www.w3.org/2000/svg" xmlns:xlink="http://www.w3.org/1999/xlink" xmlns:sketch="http://www.bohemiancoding.com/sketch/ns">
    <!-- Generator: Sketch 3.3.3 (12081) - http://www.bohemiancoding.com/sketch -->
    <title>logo</title>
    <desc>Created with Sketch.</desc>
    <defs></defs>
    <g id="Page-1" stroke="none" stroke-width="1" fill="none" fill-rule="evenodd" sketch:type="MSPage">
        <g id="logo" sketch:type="MSArtboardGroup" fill="#FFFFFF">
            <path d="M46.6457435,27.0413269 C45.4196736,27.8593981 42.9393707,29.8095185 41.3141604,29.0207327 C40.1512149,28.4561484 40.2628965,26.403289 40.2866896,25.3658173 C40.3653523,22.036402 41.3889385,18.7948429 41.8934481,15.5201577 C42.1624551,13.7692741 41.49625,11.3227419 39.365559,13.3876035 C37.0333556,15.6469011 35.3697851,18.6512963 33.7834207,21.6590522 C34.4321452,18.194732 34.5423701,14.6752015 32.0552691,15.4769497 C30.024606,16.1313106 28.6858834,18.930708 27.7108543,20.5927752 C27.1791528,21.4991827 26.6717298,22.4300747 26.189071,23.3768097 C26.051654,22.7517342 25.8132381,22.1477825 25.4359484,21.5836783 C25.0207842,20.9619634 24.4390686,20.5452464 23.7786904,20.2696754 C23.7582964,16.539386 21.3683099,13.2003689 17.1719946,13.0640237 C13.2976138,12.9382405 9.34505584,15.1226442 6.05336168,17.6195857 C8.87793535,13.1417981 12.2118743,8.8757297 11.8224454,3.28509648 C11.7350424,2.03446535 11.1489567,0.0358559774 9.56210662,0.000809500408 C7.13521661,-0.0520002595 5.58284219,2.49054964 4.4548579,4.26255712 C2.08040968,7.99476688 0.847056217,12.8940723 0.22552376,17.2019085 C-0.22071712,20.2956002 -0.402806707,25.1060893 3.655606,25.6490696 C4.60975544,25.7762931 5.2555665,24.3710734 4.06737125,24.211684 C0.850940794,23.7815245 1.78955192,18.2278581 2.12459676,16.1778792 C2.67717796,12.7975745 3.75272045,9.41294898 5.17738938,6.2947727 C5.95139151,4.60053959 6.97594892,2.8328529 8.46374224,1.67103818 C10.4040889,0.156358248 9.91074749,6.53097636 9.83694051,6.94193231 C8.91241098,12.0932843 4.77970572,16.0511358 2.52373713,20.6326225 C2.0381649,21.6177646 3.41621889,21.7109018 3.96394437,21.2106493 C7.26729226,18.1961722 11.4509826,15.197538 15.9959387,14.5431771 C19.9217902,13.9785928 21.5596253,16.7463043 21.8072672,19.8265535 C21.1323218,19.7723035 20.4549485,19.7934274 19.8406996,19.8462372 C14.2522488,20.3272861 8.23795115,24.0777392 4.72823506,28.2813961 C3.38271441,29.893054 2.11488531,32.0817785 2.59317396,34.2503392 C3.16906263,36.8581812 5.91594474,38.3627793 8.45840094,38.399266 C12.0880534,38.4520758 15.3472142,35.6512381 17.6342594,33.1706197 C20.4083336,30.1614236 22.6181728,26.3514394 23.5495003,22.3705437 C23.5655242,22.3009308 23.5732934,22.231318 23.5878605,22.1617051 C25.4165256,23.86554 24.2953393,27.5012519 23.6276775,29.4460914 C23.2979739,30.4456361 25.0858509,30.2948882 25.3611703,29.4931401 C26.7164024,25.3826204 28.7781421,20.9854877 31.5483317,17.6080635 C31.7139118,17.4117073 31.889689,17.2249527 32.0751776,17.0473199 C32.2791179,16.8864902 32.1523835,16.7861516 32.3441846,17.2676806 C32.7428394,18.2691457 32.4053667,19.7939075 32.252897,20.7982531 C31.9052273,23.0834755 31.2516471,25.342773 30.5266877,27.5358183 C30.1998976,28.5228807 31.8163676,28.3279647 32.1795756,27.7643405 C33.798959,25.250596 35.2279981,22.62115 36.7191904,20.0325116 C37.4402651,18.7804402 38.1812484,17.540371 38.9659331,16.3262266 C39.2368824,15.9066291 39.5272546,15.4999939 39.8215114,15.0952791 C39.9778656,14.8845202 40.1517005,14.6881639 40.3284488,14.4942081 C40.3643811,15.2642704 40.0167114,16.3396691 39.9171691,16.8672866 C39.6146576,18.4683825 39.2631033,20.0589165 38.9800147,21.6638531 C38.5493121,24.1017437 37.842319,27.3917917 39.3509919,29.5982795 C41.2131614,32.322783 45.8547463,29.2425337 47.5994074,28.0778385 C48.6006573,27.4100351 47.5134611,26.4618598 46.6457435,27.0413269 Z M13.4461989,35.0784923 C10.7119417,37.1409535 5.88001239,38.0708853 4.41601212,34.0294984 C3.59005375,31.7485969 5.71346112,29.2617373 7.17697582,27.7729821 C9.41692053,25.4954412 12.2764554,23.7546395 15.2165953,22.5116898 C17.1074135,21.7128222 19.6678359,20.8371403 21.8242622,21.3085874 C21.7689069,22.3004508 21.5863318,23.2750309 21.3046999,24.1339096 C19.9237325,28.340447 16.9957319,32.4015176 13.4461989,35.0784923 Z" id="Imported-Layers" sketch:type="MSShapeGroup"></path>
        </g>
    </g>
</svg>